<svg viewBox="0 0 1000 1500" height="1500" width="1000" xmlns="http://www.w3.org/2000/svg" version="1.1"><g transform-origin="center" transform="scale(1, 1) rotate(0)"><rect x="0" y="0" width="1000" height="1500" fill="#002438"></rect><linearGradient id="linear-gradient-r0"><stop offset="0%" stop-color="#ff0005ff" stop-opacity="100%"></stop><stop offset="100%" stop-color="#ff0092ff" stop-opacity="100%"></stop></linearGradient><filter id="shadow-r0" x="0" width="100%" y="-20%" height="150%"><feDropShadow dx="0" dy="0" stdDeviation="10" flood-color="#00000061"></feDropShadow></filter><path d="M0 0 0,404.2813680425752 C 59.99999999999999,403.9658244297607 213.33333333333331,398.2671797840158 333.3333333333333,402.5283479713835 C 453.3333333333333,406.7895161587512 546.6666666666666,428.6396917782258 666.6666666666666,427.9545246390626 C 786.6666666666666,427.26935749989934 940,403.9837428042665 1000,398.72186386492103 L1000 1500 L0 1500Z" fill="none" stroke-linecap="round" filter="url(#shadow-r0)" stroke-width="1" style="transition: all 0.4s cubic-bezier(0.16, 1, 0.3, 1) 0s; fill: url(&quot;#linear-gradient-r0&quot;);"></path><path d="M0 0 0,548.5119621690052 C 60,554.7484947820535 213.33333333333331,584.0930199964624 333.3333333333333,583.1593655748293 C 453.3333333333333,582.2257111531961 546.6666666666666,555.5242878646295 666.6666666666666,543.3249931599324 C 786.6666666666666,531.1256984552354 940,520.4146137743055 1000,515.3855061042899 L1000 1500 L0 1500Z" fill="none" stroke-linecap="round" filter="url(#shadow-r0)" stroke-width="1" style="transition: all 0.4s cubic-bezier(0.16, 1, 0.3, 1) 0s; fill: url(&quot;#linear-gradient-r0&quot;);"></path><path d="M0 0 0,738.364206510596 C 60,729.2857113805786 213.33333333333334,703.3741961808519 333.3333333333333,687.9281224549437 C 453.33333333333326,672.4820487290357 546.6666666666666,678.8753693355961 666.6666666666666,652.5526858111067 C 786.6666666666666,626.2300022866173 940,561.6460966919348 1000,541.690991763336 L1000 1500 L0 1500Z" fill="none" stroke-linecap="round" filter="url(#shadow-r0)" stroke-width="1" style="transition: all 0.4s cubic-bezier(0.16, 1, 0.3, 1) 0s; fill: url(&quot;#linear-gradient-r0&quot;);"></path><path d="M0 0 0,832.5312517499551 C 59.99999999999999,824.8252022281895 213.33333333333334,821.5756015297864 333.3333333333333,789.7198655179236 C 453.33333333333326,757.8641295060609 546.6666666666666,672.911769286925 666.6666666666666,655.5549405729398 C 786.6666666666666,638.1981118589547 940,686.5001815530053 1000,693.2930393291172 L1000 1500 L0 1500Z" fill="none" stroke-linecap="round" filter="url(#shadow-r0)" stroke-width="1" style="transition: all 0.4s cubic-bezier(0.16, 1, 0.3, 1) 0s; fill: url(&quot;#linear-gradient-r0&quot;);"></path><path d="M0 0 0,926.8870452247405 C 59.99999999999999,898.542777173145 213.33333333333331,789.790441857834 333.3333333333333,769.4188893825436 C 453.3333333333333,749.0473369072532 546.6666666666666,803.3992412402885 666.6666666666666,813.7117536953496 C 786.6666666666666,824.0242661504107 940,824.370828365238 1000,826.7106252439941 L1000 1500 L0 1500Z" fill="none" stroke-linecap="round" filter="url(#shadow-r0)" stroke-width="1" style="transition: all 0.4s cubic-bezier(0.16, 1, 0.3, 1) 0s; fill: url(&quot;#linear-gradient-r0&quot;);"></path></g></svg>