<?xml version="1.0" encoding="UTF-8"?><svg id="_ар_1" xmlns="http://www.w3.org/2000/svg" xmlns:xlink="http://www.w3.org/1999/xlink" viewBox="0 0 2000 2000"><defs><style>.cls-1{fill:#0c960c;}.cls-2{stroke:#b27b49;stroke-width:3px;}.cls-2,.cls-3{stroke-miterlimit:10;}.cls-2,.cls-3,.cls-4,.cls-5{fill:none;}.cls-6{fill:#ba7b42;}.cls-7{clip-path:url(#clippath-2);}.cls-3{stroke:#d59758;stroke-width:2px;}.cls-8{fill:#cd8a49;}.cls-9{fill:#faf2e3;}.cls-4{font-family:AgencyFB-Reg, 'Agency FB';font-size:360.62px;letter-spacing:-.06em;}.cls-10{fill:#e0e0e0;}.cls-11{fill:#d59758;}.cls-12{fill:#fadca5;}.cls-13{clip-path:url(#clippath-1);}.cls-14{fill:#0e7c0e;}.cls-15{clip-path:url(#clippath);}.cls-16{fill:#8b5c29;}.cls-17{fill:#a56028;}.cls-18{fill:#00b405;}.cls-19{clip-path:url(#clippath-3);}.cls-20{fill:#9a9a9a;}.cls-21{fill:#a8a8a8;}.cls-22{fill:#565454;}</style><clipPath id="clippath"><path class="cls-5" d="M365.23,1027.11c44.5-38.42,81.55-75.85,104.42-104.25l-17.98-17.9-14.22,6.52,10.81-9.92-8.96-8.92c-32.17,19.13-75.08,50.73-119.58,89.16-45.88,39.61-83.84,78.18-106.51,106.87l29.47,29.34c32.48-18.92,76.66-51.28,122.55-90.9Z"/></clipPath><clipPath id="clippath-1"><polygon class="cls-5" points="456.2 1112.27 478.19 1114.16 489.18 1072.17 218.49 1072.17 206.04 1105.54 216.37 1113.55 204.99 1108.37 193.67 1138.72 471.76 1138.72 477.66 1116.21 456.2 1112.27"/></clipPath><clipPath id="clippath-2"><polygon class="cls-5" points="475.57 936.13 487.45 904.28 477.6 896.64 488.45 901.59 499.25 872.63 233.92 872.63 217.3 936.13 475.57 936.13"/></clipPath><clipPath id="clippath-3"><text class="cls-4" transform="translate(632.87 1130.34) scale(1.93 1)"><tspan x="0" y="0">bran</tspan></text></clipPath></defs><g class="cls-15"><g><path class="cls-8" d="M382.41,836.73l-221.32,197.15c-.79,.71,92.38,104.49,99.78,112.8l45.46,51.04c2.02,2.27,23.48-19.1,26.08-21.41l194.35-173.12c2.93-2.61,1.82-2.36-.84-5.36l-143.51-161.11"/><path class="cls-6" d="M288.8,1177.91c34.79-29.76,61.78-65.94,74.87-109.99-42.15,10.53-80.52,39.83-115.33,64.58,2.17,4.44,6.36-1.13,8.91-3.07,3.91-2.97,7.87-5.86,11.88-8.7,7.95-5.63,16.04-11.02,24.33-16.15,17-10.52,34.3-19.14,54.13-22.34-1.31,17.29-11.74,35.87-21.85,49.54-6.69,9.04-13.56,17.54-20.9,26.05-3.35,3.89-20.03,17.02-16.05,20.08"/><path class="cls-6" d="M284.7,1173.31c22.82-22.17,45.65-48.26,51.95-80.19-30.52-.31-61.27,26.58-83.86,44.18,2.21,2.12,11.83-7.72,14.78-9.99,6.39-4.92,12.97-9.48,19.77-13.82,13.7-8.74,27.8-14.58,43.99-16.2,.96,13.34-8.78,28.52-16.28,38.82-3.58,4.91-31.57,35.07-30.35,37.2"/><path class="cls-6" d="M282.58,1170.73c19.62-19.6,36.26-41.55,43.4-68.67-11.04-1.03-24.02,6.46-33.12,11.92-13.18,7.9-25.5,16.66-37.81,25.84l1.25,1.6c18.33-17.49,41.4-28.99,65.59-35.7-3.05,12.66-9.89,24.3-16.69,35.24-2.76,4.44-24.03,27.89-22.61,29.79"/><path class="cls-6" d="M276.65,1164.26c13.49-10.79,21.59-26.4,27.55-42.23-15.73,5.69-30.75,13.44-43.41,24.43l15.86,17.81"/><path class="cls-6" d="M293.34,1183.19c21.21-21.6,42.02-43.62,59.52-68.43,5.18-7.34,10.05-14.73,14.84-22.33,3.19-5.07,4.15-11.65,6.81-17.13,6.88-14.17,15.61-26.85,25.08-39.39-23.49,18.18-50.82,25.89-76.63,39.55-13.88,7.35-27.51,15.35-40.47,24.24-7.46,5.12-14.67,10.39-21.88,15.87-3.49,2.65-14.48,14.65-16.82,11.65,17.51-14.15,35.21-28.4,54.06-40.75,9.69-6.35,19.35-13.08,29.76-18.22,10.25-5.07,21.04-8.35,31.27-13.45,44.94-22.39,80.69-59.26,117.96-92.05,3.27-2.88,6.54-5.76,9.82-8.64,7.16,4.78-8.91,14.41-12.62,17.82-12.67,11.67-25.33,23.34-37.99,35.01-14.52,13.38-29.93,25.73-40.82,42.38-12.28,18.77-21.08,39.39-33.46,58.1-11.94,18.06-25.38,35.87-40.38,51.53-8.59,8.97-17.34,17.57-26.38,26.09,.29,.34-2.04-2.37-1.69-1.83"/><path class="cls-6" d="M497.37,965.78c-36.85,30.21-69.97,64.55-98.68,102.53-13.23,17.49-18.91,38.87-31.58,56.67-14.02,19.71-30.11,37.05-47.54,53.78-5.38,5.16-11.22,9.9-16.83,14.82,2.66,3.47,8.44-4.23,11.06-6.65,3.83-3.52,7.6-7.11,11.28-10.79,8.81-8.81,17.21-17.93,25.47-27.26,14.76-16.66,25.8-34.57,36.34-53.91,23.78-43.6,59.98-74.96,95.22-109.12,3.04-2.95,21.69-16.37,15.24-20.06"/><path class="cls-6" d="M503.14,972.57c-26.21,22.41-51.11,46.88-74.08,72.59-11.18,12.51-22.42,25.23-31.61,39.3-5.19,7.95-9.99,15.26-13.8,23.91-4.1,9.31-5.1,16.03-6.03,26.27,2.48-2.07,6.11-4.37,6.61-6.73,.86-4.07-.49-9.05,.71-13.73,2.2-8.58,7.58-16.34,12.21-23.75,9.98-15.96,22.75-29.94,35.15-44.01,10.93-12.41,22.6-24.58,34.68-35.87,7.6-7.11,15.21-14.22,22.82-21.33,2.77-2.58,18.46-13.47,13.36-16.65"/><path class="cls-6" d="M392.83,1122.55c-4.84-11.64,8.06-29.49,14.18-38.52,8.59-12.66,18.48-24.65,28.82-35.91,22.69-24.74,47.33-47.53,71.49-70.84,2.69,2.55-7.1,9.52-9.17,11.55l-24.95,24.51c-10.85,10.66-21.85,21.16-32.26,32.25-11.07,11.79-21.03,24.46-29.88,37.98-4.21,6.43-7.31,13.2-9.69,20.47-1.27,3.89-1.25,7.57-1.45,11.68-.1,2.08-5.58,5.42-7.09,6.84"/><path class="cls-6" d="M514.14,984.93c-21.41,15.07-40.57,33.01-59.25,51.25-16.44,16.05-46.5,42.51-41.28,67.81,5.88-2.74,3.37-9.71,5.35-15.64,2.15-6.43,6.01-12.06,9.6-17.75,7.48-11.85,18.01-22.12,27.86-31.99,9.26-9.28,19.28-17.61,29.45-25.86,7.9-6.41,22.95-22.09,33.89-21.52l-5.62-6.3"/><path class="cls-6" d="M428.26,1090.99c2.98-20.95,25.69-39.99,40.17-53.55,14.88-13.93,30.66-31.24,50.53-37.75,4.57-1.5,13.27-.82,6.69,4.49-3.43,2.77-9.98,3.81-14,5.92-9.75,5.12-19.79,10.81-28.16,18.06-18.83,16.32-33.19,34.03-46.58,54.97-1.93,3.01-6.06,5.41-8.66,7.86"/><path class="cls-11" d="M385.02,1129l-31.45,28.47c12.1-11.4,22.14-25.08,28.35-40.51-1.07,4.08-1.14,9.8,3.1,12.05"/><path class="cls-6" d="M456.18,1066.12c12.93-19.42,30.73-35.47,51.5-45.93-17.15,15.27-34.83,30.25-51.5,45.93"/><path class="cls-6" d="M482.5,949.41c-16.92,14.95-33.47,30.3-50.59,45.03-17.73,15.26-35.57,32.39-55.97,44.03-18.42,10.51-39.91,14.87-58.08,26.45-18.85,12.02-36.89,25.86-54.71,39.33-7.92,5.99-15.83,12.02-22.72,19.19l-1.32-1.48c33.82-28.47,68.24-55.39,107.5-75.83,8.53-4.44,19.09-7.13,26.83-12.43,9.53-6.52,18.76-13.39,27.97-20.35,18.4-13.89,35.86-29.06,52.97-44.48,8.38-7.55,16.52-15.33,24.7-23.09,1.05,1.12,2.66,2.31,3.41,3.64"/><path class="cls-6" d="M476.52,942.87c-33.53,28.83-66.05,63.38-105.32,84.46-8.84,4.75-19.11,6.74-27.64,11.28-9.7,5.17-19.29,10.51-28.73,16.14-20.81,12.4-38.13,30.09-56.27,45.97-5.25,4.6-10.51,9.2-15.76,13.79-.19,.17-7.67,7.23-7.08,3.79,.27-1.6,5.64-5.02,6.79-6.05l17.67-15.74c17.43-15.53,33.89-31.85,53.66-44.33,9.17-5.78,18.52-11.82,28.51-16.09,9.6-4.11,19.22-7.05,28.41-12.21,18.09-10.15,33.84-25.62,49.72-38.79l37.86-31.42c2.82-2.34,15.59-16.73,18.18-10.81"/><path class="cls-6" d="M346.28,973.2c-5.18,6.15-9.82,12.5-13.4,19.73-3.41,6.89-4.62,14.76-8.07,21.52-7.47,14.6-18.06,27.95-28.97,40.14,16.71-12.63,37.66-20.87,57.31-27.8,21.31-7.52,40.84-25.32,58.4-39.14,18.21-14.34,35.96-29.31,53.34-44.66,1.95-1.72,3.9-3.45,5.84-5.18,1.3-1.15-.56-2.97-2.12-1.68-6.1,5.07-12.21,10.15-18.31,15.22-9.29,7.72-18.72,15.24-28.15,22.8-17.98,14.41-36.68,28.43-56.29,40.54-17.14,10.59-38.06,15.03-54.05,27.37,9.99-11.57,15.86-23.67,20.9-37.86,5.78-16.26,13.83-27.92,25.89-39.99,12.11-12.12,25.12-23.75,38.95-33.89,14.19-10.41,30.24-16.47,44.24-26.92-2.31-4.19-9.9,4.19-12.61,6.2-3.09,2.29-7.21,3.8-10.56,5.74-8.92,5.15-17.6,10.77-25.93,16.83-16.84,12.23-31.87,26.2-46.4,41.05"/><path class="cls-6" d="M465.12,930.08c-19.59,18.61-39.05,37.82-60.65,54.12-19.71,14.87-45.17,36.48-70.49,38.96-.45-28.3,21.02-51.35,40.97-68.49,10.58-9.09,21.47-17.98,32.89-26.01,6.04-4.25,12.19-8.31,18.98-11.22,4.5-1.92,16.33-13.65,19.18-9.33-20.24,14.57-41.97,25.78-61.39,41.71-21.01,17.23-36.02,38.42-42.08,64.87,23.44-6.72,45.04-21.77,63.79-36.89,9.83-7.93,19.68-15.81,29.39-23.87,9.28-7.7,20.84-15.7,27.65-25.79l1.74,1.95"/><path class="cls-11" d="M303.82,1048.32c-24.01,21.86-48.03,43.72-72.04,65.58-3.28-2.78,6.06-8.44,8.32-10.48,8.53-7.72,17.07-15.43,25.6-23.15,13.39-12.11,26.78-24.21,40.16-36.32-.68,1.45-1.28,2.97-2.05,4.37"/><path class="cls-11" d="M224.01,1105.17c16.76-14.93,33.43-29.98,49.74-45.4,15.3-14.46,35.5-29.72,44-49.36,17.78-41.08,55.45-71.26,90.89-96.98,8.59-6.24,17.79-11.29,27.14-16.29-7.25-10.84-95.44,70.21-103.71,81.42-5.82,7.88-10.84,17.57-15.21,26.33-4.07,8.15-9.87,14.97-15.8,21.93-15.55,18.25-34.65,33.78-52.15,50.08-6.73,6.27-13.46,12.55-20.2,18.82-2.59,2.41-10.14,6.37-4.7,9.46"/><path class="cls-6" d="M214.7,1094.53c33.97-30.97,70.87-59.82,98.55-96.78,13.05-17.43,26.28-33.42,42.25-48.4,15.72-14.74,33.1-28.31,50.52-40.98,8.16-5.94,16.32-11.7,25.57-15.8-2.38-5.21-20.64,9.09-24.25,11.61-9.58,6.67-18.95,13.56-28.04,20.9-18.98,15.34-36.26,32.16-53.1,49.79-13.59,14.22-25.47,30.02-38.96,44.3-15.97,16.9-32.33,33.38-48.93,49.66-4.26,4.17-8.6,8.27-12.94,12.35-2.89,2.72-14.41,10.11-10.66,13.34"/><path class="cls-6" d="M200.05,1078.08c34.91-31.27,70.35-61.89,104.6-93.9,33.04-30.88,64.45-64.97,101.88-90.72,5.55-3.82,10.93-6.94,16.92-10.03-4.81-5.57-5.33-3.14-10.64,1.15-4.45,3.6-8.92,7.19-13.32,10.85-8.9,7.39-17.79,14.79-26.53,22.35-18.58,16.08-36.86,32.45-54.9,49.13-37.95,35.08-76.64,69.4-114.96,104.08-2.31,2.1-7.41,4.43-3.05,7.09"/><path class="cls-11" d="M185.61,1062.06c16.03-15.68,32.73-30.67,50.4-44.48,17.29-13.51,37.11-23.48,54.42-37.16,18.98-15,36.43-31.08,53.22-48.49,15.23-15.79,28.85-32.64,45.12-47.52,6.72-6.15,13.49-12.03,21.52-16.39-4.73-5.31-4.44-7.3-9.72-2.52-4.77,4.32-9.47,8.71-14.12,13.16-7.57,7.25-15.06,14.81-21.9,22.76-15.12,17.58-29.44,35.27-46.16,51.43-16.79,16.24-35.22,30.86-54.75,43.66-18.99,12.45-36.64,27.01-54.45,41.08-4.88,3.86-9.78,7.72-14.55,11.71-3.09,2.58-14.78,9.21-9.03,12.76"/><path class="cls-6" d="M180.55,1056.39c16.95-15.11,34.2-29.99,52.35-43.64,18.18-13.68,38.44-25.05,56.74-38.9,17.77-13.45,32.11-27.88,44.55-46.3,12.11-17.93,25.18-35.44,41.9-49.34,8.28-6.89,16.57-13.78,24.85-20.67-2.41-4.49-5.93,.84-8.55,3.03-4.33,3.63-8.63,7.3-12.93,10.97-7.98,6.82-15.67,13.93-23.25,21.2-8.15,7.82-16.08,15.85-23.67,24.22-7.25,8-12.02,17.35-18.96,25.51-29.39,34.59-69.54,57.75-104.71,85.84-4.15,3.32-32.85,24.65-28.33,28.09"/><path class="cls-6" d="M459.78,924.09c-14.79,13.5-28.11,27.97-43.68,40.72-18,14.73-37.33,32.33-60.33,38.08,6.03-22.63,23.26-40.53,40.26-55.6,15.84-14.04,37.43-21.13,51.91-36.68,5.62,5.38,.31,6.81-4.57,11.37-3.24,3.02-6.31,6.34-9.97,8.85-7.62,5.25-16.02,7.4-24.09,11.57-20.14,10.39-33.13,26.59-40.25,47.81,17.9-4.81,35.58-17.45,48.21-30.74,5.76-6.05,10.79-13.08,17.52-18.08,8.22-6.11,15.63-12.14,23.24-19.25l1.74,1.95"/><path class="cls-6" d="M381.88,977.94c17.49-3.6,30.64-19.71,40.92-33.06-18.39,4.57-32.02,16.79-40.92,33.06"/><path class="cls-11" d="M455.52,919.12c-6.54,5.88-13.8,13.39-21.91,16.97,3.4-3,19.45-19.73,21.91-16.97"/><path class="cls-6" d="M172.21,1047.02c16.65-14.83,33.35-30.92,51.88-43.39,7.94-5.34,17.73-8.4,26.31-12.71,9.97-5.01,19.15-11.39,27.77-18.43,14.47-11.83,33.13-28.7,41.4-45.65,9.48-19.43,24.1-31.8,39.74-46.29,10.94-10.14,21.88-20.27,32.83-30.41,.87-.81,1.6-2.47-.54-2.78-.95-.14-5.11,4.46-5.73,5-4.25,3.73-8.48,7.49-12.72,11.23-16.08,14.21-32.67,28.23-46.89,44.33-14.47,16.38-22.05,36.36-38.98,51.08-16.56,14.4-35.91,22.97-54.63,34.02-22.96,13.55-42.21,34.55-62.21,52.02l1.77,1.99"/><path class="cls-6" d="M232.1,985.88c17.09-6.35,33.58-14.52,48.09-25.6,12.07-9.22,26.81-28.43,27.23-44.04-30.7,15.65-60.75,37.73-75.32,69.64"/><path class="cls-6" d="M167.96,1042.05c14.34-12.77,28.52-25.72,42.41-38.97,6.15-5.88,13.05-11.8,17.16-19.29,4.24-7.73,7.56-15.87,14.27-21.93-6.23,5.64-15.09,11.38-19.53,18.36-3.26,5.13-4.75,9.97-9.32,14.42-9.22,8.99-18.44,17.98-27.66,26.97-2.77,2.7-21.39,17.51-17.32,20.43"/><path class="cls-6" d="M282.29,925.79c38.31-21.28,72.25-49.57,104.43-79.27,1.45-1.34,2.54-4.71,.22-2.65-1.87,1.66-3.72,3.33-5.6,4.98-4.57,4.04-9.2,8.01-13.84,11.96-8,6.82-16.04,13.68-24.42,20.04-9.22,7.01-18.49,14.6-28.78,20.02-11.44,6.03-20.2,14.56-30.03,23.16-.66,.58-1.33,1.16-1.99,1.74"/><path class="cls-11" d="M386.19,841.16c-15.3,13.61-33.24,32.65-53,39.3,8.61-7.49,17.03-15.04,26.25-21.77,4.86-3.55,9.67-7.17,14.51-10.74,2.58-1.91,10.09-9.37,12.24-6.78"/><path class="cls-11" d="M162.87,1036.53c14.02-12.51,32.31-25.8,42.27-41.89-8.17,7.31-16.35,14.62-24.52,21.94-3.01,2.69-22.71,16.57-17.75,19.96"/><path class="cls-16" d="M353.18,1114.64c17.51-24.27,26.16-52.86,44.38-76.89-13.18,9.23-26.98,17.76-41.77,24.15-14.18,6.13-28.05,10.91-41.71,18.55,17.99-9.77,37.15-16.89,55.05-26.59,20.51-11.12,37.6-24.84,54.94-40.29-14.54,14.28-29.26,28.58-40.18,45.91-11.2,17.76-16.1,39.41-30.7,55.16"/><path class="cls-16" d="M323.91,1134.26c11.97-14.91,18.82-32.67,23.1-51.1-14.94-1.81-33.92,9.8-46.15,17.19-17.34,10.48-35.02,21.29-50.47,34.45l-.41-.65c14.91-11.65,31.03-24.51,48.13-32.76,16.92-8.16,30.86-18.57,50.37-19.54-.54,19.1-13.95,37.51-24.58,52.42"/><path class="cls-16" d="M331.34,1097.29c-13.96,.58-27.01,6.75-39.12,13.2,9.94-6.79,22.78-12.54,34.86-13.69,7.93-.76,6,2.23,3.55,9-2.61,7.19-5.9,14.04-9.27,20.91,4.21-8.26,11.03-19.86,9.98-29.41"/><path class="cls-16" d="M321.88,1105.71c-13.63,2.41-26.19,7.7-37.85,15.06,11.89-8.33,25.22-13.17,39.39-15.87-3.57,11.77-9.48,22.76-16.25,32.96,5.99-10.16,11.2-20.87,14.71-32.15"/><path class="cls-16" d="M276.65,1164.26c12.97-11.53,22.34-25.72,27.55-42.23-4.17,.98-8,16.47-10.53,20.75-4.68,7.92-10.83,14.73-17.02,21.48"/><path class="cls-16" d="M304.2,1122.03c-9.8,3.17-20,7.01-28.19,13.41,3.95-2.95,8.3-5.26,12.77-7.31,4.17-1.91,12.68-2.64,15.41-6.1"/><path class="cls-16" d="M317,1065.97c9.89-7.01,20.64-12.96,32.02-17.18,10.23-3.79,21.89-6,30.97-12.37-19.96,12.14-42.91,17.15-62.99,29.54"/><path class="cls-16" d="M316.85,1053.11c8.73-4.77,18.08-11.93,27.62-14.74,8.74-2.57,18.59-5.33,26.15-10.55-6.97,4.32-15.38,9.44-23.58,10.73-10.17,1.59-21.03,9.91-30.19,14.56"/><path class="cls-16" d="M302.25,1050.29c11.06-6.68,22.54-12.92,34.45-17.94,11.3-4.76,23.65-6.57,33.41-14.64-21.21,13.58-47.39,17.78-67.86,32.58"/><path class="cls-16" d="M360.8,1013.23c-5.13,2.52-23.42,13.3-26.24,6.65-3.57-8.43,7.26-25.65,11.2-32.48-6.19,8.51-12.98,20.61-12.12,31.53,.52,6.54,4.7,4.2,10.31,2.42,5.98-1.91,11.55-5.07,16.85-8.12"/><path class="cls-16" d="M306.57,1041.19c9.08-10.16,17.82-21.81,20.96-35.29-2.74,13.08-12.96,25.02-20.96,35.29"/><path class="cls-16" d="M303.62,1023.46c14.42-13.5,18.09-33.53,31.47-48.05-12.88,14.77-18.55,33.53-31.47,48.05"/><path class="cls-16" d="M355.74,1002.92c3.66-12.3,10.59-23.13,18.36-33.2-7.73,9.34-13.18,20.25-16.99,31.69,9.93-2.07,19.24-8.05,27.87-13.13-8.53,5.72-18.78,13.37-29.24,14.63"/><path class="cls-16" d="M381.88,977.94c2.43-6.63,6.65-13.1,12.28-17.44-4.89,4.52-8.96,10.13-10.94,16.53,3.13-1.02,6.28-2.09,9.18-3.66-3.13,2.03-6.73,4.27-10.52,4.56"/><path class="cls-16" d="M270.92,1035.81c25.26-24.13,45.13-52.98,70.51-76.94-24.76,24.69-46.58,51.51-70.51,76.94"/><path class="cls-16" d="M245.44,1011.02c18.9-11.69,37.52-24.08,54.53-38.4-16.48,15.01-35.15,27.5-54.53,38.4"/><path class="cls-16" d="M239.94,1008.01c20.33-12.44,40.17-25.67,58.56-40.86-18.78,14.56-38.81,27.67-58.56,40.86"/><path class="cls-16" d="M206.86,1016.56c23.1-20.75,53.91-28.57,77.3-49.64-12.06,9.85-24.87,19.61-38.53,27.13-13.25,7.3-27.22,12.43-38.77,22.51"/><path class="cls-16" d="M232.1,985.88c13.18-4.56,25.67-10.77,37.38-18.32-10.47,5.09-21.82,12.01-33.14,14.83,.87-12.11,12.84-23.21,20.65-31.39-7.79,8.93-23.47,22.65-24.88,34.88"/><path class="cls-16" d="M212.27,995.35c5.39-2.84,8.1-8.65,9.2-14.41-1.58,5.55-4.99,10.53-9.2,14.41"/><path class="cls-16" d="M428.26,1090.99c.18-8.31,7.7-17.53,12.67-23.67,7.69-9.49,15.88-18.36,24.35-27.16-14.63,13.77-36.09,31.8-38.92,52.76-.39,.42,2.38-2.54,1.9-1.92"/><path class="cls-16" d="M413.64,1104.02c-6.65-14.79,11.12-34.46,19.45-44.79-12.02,12.17-24.67,28.48-20.32,46.36-.07,.14,.99-1.81,.87-1.56"/><path class="cls-16" d="M392.83,1122.55c-4.93-21.41,19.73-46.97,32.08-61.7-15.86,17.53-33.72,38.87-34.46,63.48,.75-.6,1.75-1.15,2.37-1.78"/><path class="cls-9" d="M384.56,1123.42c-1.82,5.43-5.4,10.09-9.11,14.39,3.91-3.52,14.95-9.15,9.11-14.39"/><path class="cls-16" d="M361.41,1149.13c6.74-8.23,13.63-15.94,16.67-26.27,3.09-10.49,6.99-20.3,13.12-29.44-6.51,9.22-11.88,19.39-14.21,30.48-2.01,9.54-9.94,17.52-15.58,25.22"/><path class="cls-16" d="M406.57,943.8c9.91-4.48,20.34-7.15,28.78-14.33-8.87,6.29-19.25,9.24-28.78,14.33"/><path class="cls-16" d="M422.42,953.98c3.13-3.88,6.36-8.21,10.5-11.05-4.91,1.09-8.19,7.03-10.5,11.05"/><path class="cls-16" d="M413.11,928.93c7.84-5.42,16.88-8.68,24.45-14.43-8.18,4.28-17.51,8.26-24.45,14.43"/><path class="cls-16" d="M435.78,897.14c-12.58,6.7-25.14,13.9-36.21,22.93,11.24-7.45,24.47-18.42,37.73-21.74l-1.51-1.19"/><path class="cls-16" d="M431.59,892.57c-14.97,7.53-29,17.17-41.62,28.15,13.27-10.29,27.24-20.09,42.52-27.14l-.9-1.01"/><path class="cls-16" d="M423.45,883.43c-22.41,10.29-41.48,28.48-59.34,45.06,8.81-8.48,18.08-16.77,27.91-24.06,5.3-3.93,10.59-8.1,16.26-11.48,2.86-1.7,15.97-8.26,15.17-9.52"/><path class="cls-16" d="M333.19,880.46c10.58-4.53,19.98-11.33,28.79-18.64-8.8,7.15-19.53,17.05-30.67,20.14,.63-.5,1.25-1,1.88-1.51"/><path class="cls-16" d="M282.29,925.8c14.78-8.02,28.52-16.74,41.88-26.91-13.08,10.08-29.73,15.85-41.88,26.91"/><path class="cls-16" d="M303.57,941.37c6.47-9.43,10.98-20.81,19.02-29.04-6.5,9.04-10.27,21.88-19.02,29.04"/><path class="cls-16" d="M524.53,1004.96c-12.76,1.95-24.34,10.51-34.35,18.11,4.92-3.84,10.22-7.36,15.67-10.4,5.52-3.08,14.03-4.18,18.68-7.71"/><path class="cls-16" d="M519.76,991.23c-11.76,.49-23.83,13.28-32.13,20.53,7.19-6.38,22.4-21.92,33.02-19.41l-.89-1.13"/></g></g><g class="cls-13"><g><path class="cls-8" d="M486.76,1059.32l-296.39-1.31c-1.06,0-1.14,139.47-1.19,150.6l-.3,68.35c-.01,3.04,30.23,1.49,33.71,1.51l260.27,1.15c3.92,.02,2.94-.54,2.95-4.55l.95-215.75"/><path class="cls-6" d="M189.07,1250.51c45.77,1.12,90.02-7.75,129.21-31.76-38.39-20.34-86.52-24.2-128.94-29.06-1.35,4.76,5.48,3.41,8.68,3.67,4.89,.4,9.77,.9,14.65,1.47,9.68,1.13,19.3,2.53,28.89,4.25,19.67,3.54,38.3,8.69,55.19,19.57-12.53,11.99-32.71,18.84-49.37,22.24-11.01,2.25-21.81,3.98-32.96,5.41-5.09,.65-26.27-.74-25.35,4.21"/><path class="cls-6" d="M189.1,1244.35c31.79-1.24,66.21-5.38,92.25-24.92-22.49-20.63-63.34-21.19-91.91-23.2,.23,3.06,13.96,2.17,17.67,2.45,8.04,.62,15.99,1.62,23.94,2.94,16.04,2.66,30.42,7.74,43.54,17.35-8.2,10.57-25.59,15.34-38.06,17.99-5.94,1.26-46.92,4.98-47.44,7.38"/><path class="cls-6" d="M189.24,1241.01c27.7-1.46,54.75-6.67,78.18-22.07-7.53-8.15-22.19-11.25-32.6-13.28-15.08-2.93-30.1-4.65-45.39-6.06l-.14,2.03c25.32-.75,50.17,6.11,72.64,17.29-10.73,7.38-23.6,11.47-35.97,15.05-5.02,1.45-36.52,4.68-36.73,7.04"/><path class="cls-6" d="M189.15,1232.23c17.25,1,33.7-5.2,48.72-13-15.5-6.28-31.86-10.56-48.62-10.85l-.11,23.85"/><path class="cls-6" d="M188.92,1257.47c30.21-1.89,60.42-4.36,90.01-11.11,8.76-2,17.32-4.23,25.96-6.68,5.76-1.63,10.88-5.89,16.52-8.19,14.59-5.94,29.56-9.54,44.99-12.53-29.62-2.18-55.1-14.72-83.43-21.81-15.23-3.81-30.73-6.97-46.3-9.02-8.97-1.18-17.86-2.08-26.88-2.82-4.37-.36-20.57,1.21-20.29-2.58,22.48,1.18,45.18,2.41,67.45,5.83,11.45,1.76,23.14,3.21,34.31,6.34,11.01,3.08,21.23,7.85,32.25,10.9,48.39,13.39,99.62,9.86,149.27,10.38,4.36,.05,8.72,.09,13.08,.14,2.13,8.34-16.26,4.76-21.29,4.82-17.22,.21-34.44,.43-51.66,.64-19.75,.25-39.46-.87-58.69,4.23-21.68,5.75-42.01,15.2-63.72,20.85-20.96,5.45-42.86,9.71-64.48,11.33-12.39,.93-24.64,1.47-37.06,1.77-.01,.44,.07-3.13-.03-2.49"/><path class="cls-6" d="M485.99,1232.15c-47.6-2.16-95.19,1.24-141.93,10.29-21.53,4.17-40.05,16.27-61.37,21.04-23.61,5.29-47.17,7.43-71.3,8.22-7.45,.25-14.96-.14-22.42-.23-.34,4.36,9.11,2.49,12.67,2.45,5.2-.06,10.41-.21,15.61-.49,12.44-.66,24.79-1.83,37.17-3.25,22.12-2.53,42.29-8.47,63.07-15.8,46.83-16.53,94.71-15.66,143.76-17.51,4.23-.16,27.08,2.32,24.74-4.73"/><path class="cls-6" d="M485.74,1241.06c-34.47-.85-69.35,.71-103.62,4.47-16.68,1.83-33.54,3.78-49.78,8.1-9.17,2.44-17.63,4.67-26.25,8.56-9.28,4.18-14.5,8.52-22.05,15.5,3.23,.12,7.46,.83,9.41-.59,3.36-2.45,5.69-7.06,9.71-9.74,7.37-4.91,16.56-7.09,24.96-9.5,18.09-5.2,36.93-7.06,55.56-9.24,16.42-1.92,33.24-3.17,49.77-3.5,10.41-.2,20.82-.41,31.23-.61,3.78-.07,22.73,2.32,21.06-3.45"/><path class="cls-6" d="M303.45,1278.87c4.18-11.89,25.7-16.55,36.3-19.17,14.85-3.68,30.23-5.98,45.44-7.45,33.42-3.23,66.98-3.71,100.52-4.91,.3,3.7-11.64,2.33-14.54,2.46l-34.94,1.55c-15.19,.67-30.4,1.13-45.55,2.42-16.11,1.37-31.99,4.14-47.61,8.27-7.43,1.97-14.26,4.93-20.89,8.75-3.55,2.05-5.99,4.79-8.89,7.72-1.46,1.48-7.78,.3-9.85,.35"/><path class="cls-6" d="M485.67,1257.6c-26-3.1-52.24-2.56-78.33-1.49-22.95,.95-63,.53-76.03,22.84,6.21,1.89,9-4.97,14.43-8.06,5.89-3.35,12.54-4.95,19.01-6.78,13.49-3.81,28.18-4.41,42.1-5.17,13.09-.71,26.11-.21,39.19,.45,10.16,.51,31.84-1.09,39.59,6.65l.04-8.44"/><path class="cls-6" d="M350.89,1279.08c16.22-13.59,45.84-12.57,65.68-12.98,20.38-.41,43.69-2.75,62.81,5.7,4.4,1.94,10.42,8.27,1.97,7.81-4.41-.24-9.97-3.84-14.36-4.96-10.67-2.71-21.95-5.19-33.01-5.39-24.91-.45-47.43,3.12-71.38,9.75-3.45,.95-8.13-.03-11.7,.06"/><path class="cls-11" d="M293.33,1278.45l-42.42,.15c16.62-.4,33.23-3.85,48.16-11.18-3.53,2.32-7.4,6.52-5.75,11.03"/><path class="cls-6" d="M388.29,1279.24c22.6-5.81,46.57-5.84,69.01,.26-22.96-.1-46.12-.78-69.01-.26"/><path class="cls-6" d="M485.88,1210.03c-22.57-.19-45.15,.16-67.72-.32-23.39-.5-48.11,.32-71.05-4.66-20.73-4.5-39.62-15.62-60.88-19.15-22.05-3.66-44.72-5.43-66.98-7.32-9.89-.84-19.8-1.64-29.72-.92v-1.98c44.2,1.43,87.78,4.42,130.65,15.45,9.32,2.4,18.97,7.46,28.26,8.69,11.44,1.52,22.9,2.58,34.4,3.56,22.97,1.96,46.09,2.36,69.13,2.33,11.27-.01,22.53-.36,33.8-.66,.03,1.53,.44,3.49,.1,4.98"/><path class="cls-6" d="M485.79,1201.17c-44.21-.96-91.49,2.99-134.79-7.58-9.75-2.38-18.72-7.76-28.1-10.08-10.67-2.64-21.37-5.07-32.15-7.2-23.77-4.69-48.47-3.1-72.58-3.42-6.98-.09-13.96-.18-20.94-.27-.26,0-10.54,.25-7.8-1.92,1.27-1.01,7.55,.03,9.09,.04l23.66,.1c23.35,.1,46.49-1.04,69.54,2.9,10.68,1.83,21.67,3.59,31.96,7.08,9.88,3.36,19.01,7.6,29.29,9.91,20.24,4.55,42.3,3.57,62.91,4.38l49.16,1.94c3.66,.14,22.78-2.03,20.75,4.11"/><path class="cls-6" d="M368.66,1136.67c-7.96,1.11-15.66,2.73-23.15,5.72-7.14,2.85-13.3,7.89-20.39,10.61-15.31,5.86-32.11,8.72-48.38,10.49,20.87,1.77,41.96,9.65,61.21,17.63,20.88,8.65,47.3,8.47,69.6,9.92,23.13,1.51,46.34,2.24,69.52,2.44,2.6,.02,5.2,.04,7.81,.06,1.74,0,1.57-2.59-.46-2.67-7.93-.31-15.86-.61-23.79-.92-12.07-.47-24.12-1.18-36.17-1.86-23-1.3-46.28-3.37-68.97-7.47-19.82-3.58-38.36-14.26-58.49-15.77,15.16-1.93,27.61-7.01,40.86-14.19,15.16-8.23,28.95-11.53,45.99-12.44,17.11-.92,34.56-.87,51.62,.82,17.51,1.74,33.5,7.96,50.9,9.55,1.09-4.66-10.17-3.5-13.52-3.82-3.83-.36-7.9-1.99-11.69-2.79-10.08-2.13-20.29-3.75-30.54-4.82-20.7-2.16-41.22-1.81-61.95-.48"/><path class="cls-6" d="M485.87,1184.03c-27.02,.75-54.32,2.03-81.28-.29-24.6-2.11-57.98-3.06-78.47-18.15,18.58-21.35,49.96-24.14,76.25-23.55,13.94,.31,27.99,.98,41.85,2.64,7.33,.88,14.62,1.96,21.62,4.35,4.63,1.58,21.27,.77,20.5,5.88-24.79-2.69-48.45-8.88-73.54-10.01-27.15-1.23-52.47,4.5-74.66,20.12,21.93,10.67,48.05,13.92,72.11,15.2,12.61,.67,25.2,1.39,37.82,1.89,12.05,.48,25.99,2.25,37.81-.7v2.62"/><path class="cls-11" d="M286.87,1164.16c-32.47,.21-64.94,.42-97.42,.62-.58-4.26,10.15-2.23,13.2-2.23,11.5-.03,23.01-.07,34.51-.11,18.05-.05,36.1-.11,54.15-.16-1.47,.62-2.93,1.35-4.44,1.88"/><path class="cls-11" d="M189.5,1153.1c22.45,.1,44.9,.05,67.34-.52,21.04-.53,46.27,1.62,65.72-7.3,40.68-18.67,88.88-15.93,132.43-11.38,10.56,1.1,20.78,3.5,31.07,6.03,1.85-12.9-117.92-11.58-131.56-8.77-9.6,1.97-19.8,5.82-28.91,9.41-8.47,3.34-17.35,4.54-26.4,5.75-23.77,3.18-48.35,1.96-72.26,2.39-9.2,.17-18.4,.33-27.6,.5-3.53,.06-11.8-2.04-9.82,3.89"/><path class="cls-6" d="M189.69,1138.96c45.97-.33,92.7,2.88,137.99-6.11,21.35-4.24,41.89-7.29,63.78-7.75,21.54-.46,43.54,1.07,64.97,3.29,10.04,1.04,19.96,2.21,29.58,5.34,1.71-5.47-21.43-7.04-25.8-7.58-11.59-1.44-23.16-2.58-34.83-3.19-24.37-1.27-48.47-.32-72.77,1.53-19.61,1.49-39,5.3-58.59,6.91-23.17,1.89-46.36,3.22-69.59,4.23-5.95,.26-11.92,.4-17.88,.54-3.97,.09-17.48-2.11-16.85,2.8"/><path class="cls-6" d="M189.79,1116.93c46.87,.07,93.7,1,140.57,.08,45.22-.88,91.36-5.24,136.42,.62,6.68,.87,12.77,2.14,19.29,3.85,.14-7.36-1.87-5.9-8.68-6.26-5.72-.3-11.44-.61-17.16-.84-11.56-.45-23.11-.89-34.68-1.11-24.57-.46-49.11-.5-73.68-.16-51.68,.73-103.39,.38-155.07,.57-3.12,.01-8.47-1.66-7.01,3.23"/><path class="cls-11" d="M189.76,1095.36c22.41-.94,44.85-.94,67.22,.61,21.89,1.51,43.3,7.35,65.31,8.74,24.15,1.53,47.87,1.24,71.99-.49,21.88-1.57,43.27-4.99,65.32-5.18,9.11-.08,18.07,.07,26.96,2.19,.03-7.11,1.57-8.4-5.54-8.38-6.44,.02-12.87,.15-19.3,.35-10.48,.33-21.1,.95-31.5,2.29-23,2.97-45.47,6.55-68.71,7.4-23.34,.85-46.83-.59-69.91-4.12-22.45-3.43-45.3-4.4-67.95-5.84-6.21-.39-12.43-.8-18.65-1.02-4.03-.15-17.15-3.02-15.25,3.45"/><path class="cls-6" d="M189.79,1087.76c22.71,.1,45.48,.56,68.11,2.54,22.66,1.98,45.33,7.06,68.21,8.99,22.21,1.87,42.52,.73,64.08-4.66,20.99-5.24,42.42-9.53,64.15-8.69,10.77,.41,21.53,.82,32.3,1.24,1.22-4.95-4.97-3.34-8.38-3.46-5.65-.2-11.3-.34-16.95-.48-10.49-.26-20.97-.12-31.46,.23-11.29,.37-22.55,1.04-33.79,2.19-10.74,1.1-20.54,4.87-31.15,6.3-44.98,6.08-90.32-3.53-135.26-6.15-5.3-.31-40.91-3.62-39.85,1.95"/><path class="cls-6" d="M485.9,1176.02c-20.02,.16-39.61,2.01-59.71,1.09-23.24-1.07-49.37-.91-70.32-12,19.62-12.8,44.39-14.6,67.11-14.44,21.16,.15,41.96,9.31,63.13,7.42,.59,7.76-4.32,5.27-11,5.4-4.43,.08-8.93,.49-13.34-.08-9.17-1.19-16.86-5.2-25.65-7.5-21.92-5.73-42.41-2.36-61.89,8.65,16.53,8.39,38.12,10.8,56.41,9.36,8.33-.65,16.77-2.51,25.12-1.74,10.2,.95,19.74,1.42,30.15,1.22v2.62"/><path class="cls-6" d="M391.97,1163.99c15.41,9.02,35.96,5.83,52.53,2.76-16.74-8.89-35.04-8.91-52.53-2.76"/><path class="cls-11" d="M486.06,1169.47c-8.79,0-19.21,.73-27.64-2.02,4.54,.04,27.65-1.68,27.64,2.02"/><path class="cls-6" d="M189.85,1075.23c22.3,.1,45.47-.7,67.59,2.41,9.48,1.33,18.8,5.6,28.07,8.13,10.76,2.93,21.86,4.33,32.97,4.85,18.67,.88,43.82,.8,61.31-6.28,20.04-8.12,39.18-7.54,60.5-7.86,14.91-.22,29.83-.45,44.74-.67,1.19-.02,2.83-.77,1.46-2.43-.61-.74-6.78-.1-7.61-.11-5.66-.07-11.31-.1-16.97-.15-21.46-.18-43.16-.84-64.51,1.63-21.71,2.51-40.7,12.3-63.13,11.94-21.94-.36-42.06-6.92-63.37-11.22-26.14-5.27-54.49-2.52-81.04-2.89v2.66"/><path class="cls-6" d="M275.26,1069.78c16.96,6.7,34.68,11.65,52.88,13.1,15.14,1.21,38.94-3.23,49.69-14.55-33.3-8.88-70.4-12.55-102.57,1.45"/><path class="cls-6" d="M190,1068.68c19.2,.09,38.4-.06,57.59-.64,8.5-.26,17.59-.05,25.66-2.88,8.31-2.91,16.23-6.75,25.27-6.77-8.4,.03-18.83-1.62-26.8,.6-5.85,1.63-10.2,4.24-16.58,4.5-12.87,.52-25.73,1.05-38.6,1.57-3.86,.16-27.61-1.28-26.54,3.61"/><path class="cls-6" d="M352.75,1058.64c42.72,9.78,86.87,11.43,130.66,10.85,1.97-.03,5.04-1.8,1.93-1.82-2.5-.01-5-.01-7.49-.03-6.1-.05-12.19-.2-18.29-.35-10.51-.27-21.08-.55-31.56-1.41-11.54-.95-23.51-1.51-34.79-4.35-12.54-3.16-24.75-2.67-37.81-2.85-.88-.01-1.77-.02-2.65-.04"/><path class="cls-11" d="M486.61,1065.14c-20.47-.1-46.55,2.06-65.69-6.2,11.41,.19,22.72,.2,34.08,1.35,5.99,.61,11.98,1.14,17.97,1.71,3.2,.31,13.77-.23,13.64,3.14"/><path class="cls-11" d="M189.91,1061.17c18.79,.07,41.28,2.41,59.44-2.9-10.97-.03-21.93-.05-32.9-.07-4.03,0-27.96-2.86-26.54,2.98"/><path class="cls-16" d="M279.25,1246.47c29.25-6.34,54.79-21.83,84.41-27.53-15.97-1.95-31.94-4.82-47.21-9.95-14.64-4.92-28.16-10.63-43.43-14.08,19.91,4.76,38.92,12.27,58.72,17.02,22.68,5.44,44.57,6.65,67.8,6.76-20.36,.9-40.86,1.7-60.58,7.29-20.2,5.73-38.32,18.55-59.71,20.5"/><path class="cls-16" d="M244.36,1241.51c18.87-3.09,35.83-11.72,51.34-22.56-9.9-11.33-31.78-15.39-45.81-18.06-19.9-3.79-40.27-7.58-60.56-8.11l.13-.76c18.87,1.31,39.46,2.51,57.7,7.81,18.04,5.24,35.37,6.82,50.53,19.13-13.17,13.85-35.45,18.58-53.32,22.56"/><path class="cls-16" d="M274.6,1218.98c-10.77-8.9-24.6-13.04-37.91-16.33,11.93,1.59,25.33,5.9,35.08,13.12,6.41,4.74,2.97,5.67-3.38,9.06-6.75,3.61-13.78,6.5-20.87,9.35,8.66-3.33,21.48-7.4,27.08-15.2"/><path class="cls-16" d="M261.93,1218.92c-11.75-7.32-24.63-11.79-38.22-14.1,14.41,1.75,27.56,7.06,39.91,14.53-10.53,6.37-22.26,10.59-34.12,13.65,11.25-3.55,22.29-8.04,32.43-14.08"/><path class="cls-16" d="M189.15,1232.23c17.35,.09,33.81-4.2,48.72-13-3.76-2.05-16.95,6.9-21.7,8.39-8.78,2.76-17.9,3.71-27.02,4.6"/><path class="cls-16" d="M237.88,1219.24c-9.41-4.19-19.56-8.15-29.93-8.87,4.91,.45,9.69,1.64,14.39,3.1,4.38,1.36,11.19,6.51,15.54,5.77"/><path class="cls-16" d="M284.87,1186.1c12.04,1.39,24.02,4.16,35.3,8.63,10.14,4.02,20.29,10.18,31.3,11.5-22.97-4.31-43.38-15.93-66.6-20.13"/><path class="cls-16" d="M293.35,1176.43c9.68,2.29,21.42,3.21,30.4,7.5,8.22,3.93,17.39,8.46,26.51,9.63-8.07-1.44-17.75-3.26-24.71-7.78-8.63-5.61-22.26-6.68-32.19-9.35"/><path class="cls-16" d="M284.37,1164.58c12.69,2.43,25.4,5.46,37.62,9.69,11.58,4.01,21.98,10.92,34.63,11.44-24.85-4.08-47.13-18.45-72.25-21.13"/><path class="cls-16" d="M352.7,1176.15c-5.5-1.55-26.31-5.76-23.96-12.6,2.98-8.66,22.55-14.22,30.04-16.67-10.29,2.19-23.43,6.65-30.09,15.35-3.99,5.21,.68,6.27,6.05,8.69,5.72,2.58,11.98,3.95,17.96,5.23"/><path class="cls-16" d="M293.68,1160.69c13.54-1.49,27.83-4.31,39.18-12.24-10.79,7.9-26.36,9.95-39.18,12.24"/><path class="cls-16" d="M303.33,1145.54c19.75-.4,35.87-12.85,55.52-14.7-19.45,2.38-36.21,12.54-55.52,14.7"/><path class="cls-16" d="M355.83,1165.1c10.95-6.7,23.33-10.12,35.85-12.42-11.99,1.77-23.34,6.25-33.82,12.22,8.78,5.1,19.7,6.87,29.51,8.87-10.17-1.44-22.9-2.61-31.53-8.67"/><path class="cls-16" d="M391.97,1163.99c6.24-3.3,13.71-5.3,20.79-4.76-6.65,.09-13.44,1.54-19.18,4.98,3.01,1.33,6.06,2.65,9.27,3.42-3.69-.59-7.86-1.32-10.87-3.64"/><path class="cls-16" d="M270.76,1132.86c34.92-1.07,68.98-9.24,103.87-10.09-34.92,1.81-69.08,7.18-103.87,10.09"/><path class="cls-16" d="M268.38,1097.39c21.87,3.94,44,7.17,66.23,7.89-22.29,.15-44.53-3.04-66.23-7.89"/><path class="cls-16" d="M266.29,1091.48c23.44,4.34,47.04,7.75,70.87,8.76-23.7-1.72-47.36-5.36-70.87-8.76"/><path class="cls-16" d="M235.98,1075.73c31.05,0,59.19,14.78,90.68,14.75-15.55-.73-31.6-2.04-46.8-5.58-14.73-3.43-28.55-8.95-43.88-9.17"/><path class="cls-16" d="M275.26,1069.78c12.85,5.42,26.29,9.15,40.05,11.36-11.19-3.21-24.26-5.65-34.56-11.13,8.74-8.42,25.07-8.68,36.34-9.55-11.76,1.43-32.6,1.15-41.83,9.31"/><path class="cls-16" d="M254.18,1063.57c5.91,1.49,11.81-1.02,16.48-4.57-4.88,3.08-10.75,4.5-16.48,4.57"/><path class="cls-16" d="M350.89,1279.08c5.69-6.06,17.44-7.89,25.25-9.14,12.06-1.92,24.09-3.04,36.27-3.93-20.08,.47-48.09-.47-64.21,13.22-.57,.05,3.47-.3,2.7-.16"/><path class="cls-16" d="M331.31,1278.99c4.94-15.44,31.3-18.19,44.41-20.32-17.08,1.01-37.39,4.69-46.1,20.9-.15,.06,1.94-.68,1.69-.58"/><path class="cls-16" d="M303.45,1278.87c10.64-19.22,46.07-21.75,65.11-24.45-23.52,2.44-51.06,6.37-68.06,24.18,.96,.05,2.08,.32,2.95,.27"/><path class="cls-9" d="M296.72,1273.99c-4.99,2.82-10.76,3.9-16.4,4.61,5.26,0,17.24,3.19,16.4-4.61"/><path class="cls-16" d="M262.31,1277.63c10.52-1.62,20.79-2.75,29.96-8.39,9.31-5.74,18.77-10.43,29.43-13.12-11,2.51-21.8,6.48-30.95,13.17-7.87,5.76-19.1,6.39-28.45,8.35"/><path class="cls-16" d="M433.15,1155.11c10.37,3.3,19.9,8.28,30.98,8.58-10.8-1.24-20.49-6-30.98-8.58"/><path class="cls-16" d="M438.14,1173.27c4.92-.79,10.22-1.85,15.2-1.2-4.38-2.47-10.79-.25-15.2,1.2"/><path class="cls-16" d="M447.96,1148.42c9.45,1.22,18.36,4.83,27.83,5.61-8.94-2.28-18.54-5.56-27.83-5.61"/><path class="cls-16" d="M486.07,1139.93c-13.83-3.42-27.99-6.47-42.26-7.15,13.34,1.97,30.51,2.65,42.59,9.05l-.33-1.9"/><path class="cls-16" d="M486.01,1133.73c-16.17-4.4-33.04-6.61-49.77-6.89,16.75,1.21,33.69,3.26,49.77,8.24v-1.35"/><path class="cls-16" d="M486.06,1121.49c-23.55-7.33-49.89-6.55-74.26-6.15,12.22-.41,24.66-.39,36.84,.76,6.57,.62,13.29,1.05,19.77,2.33,3.27,.65,17.4,4.53,17.64,3.06"/><path class="cls-16" d="M420.92,1058.94c10.9,3.7,22.43,4.93,33.87,5.38-11.33-.57-25.92-.37-36.27-5.52,.8,.05,1.6,.09,2.4,.14"/><path class="cls-16" d="M352.75,1058.64c16.36,3.91,32.41,6.61,49.14,7.98-16.47-1.24-32.71-8.08-49.14-7.98"/><path class="cls-16" d="M358.17,1084.45c11.12-2.69,22.07-8.14,33.55-8.88-10.88,2.38-22.26,9.41-33.55,8.88"/><path class="cls-16" d="M480.01,1279.44c-10.79-7.08-25.13-8.45-37.65-9.49,6.23,.44,12.52,1.36,18.6,2.74,6.17,1.4,13.22,6.27,19.05,6.75"/><path class="cls-16" d="M485.63,1266.04c-9.07-7.49-26.6-6.05-37.62-6.2,9.61,.06,31.32-1.33,37.53,7.64l.09-1.43"/></g></g><g class="cls-7"><g><path class="cls-8" d="M507.09,719.33l-296.39-1.31c-1.06,0-1.14,139.47-1.19,150.6l-.3,68.35c-.01,3.04,30.23,1.49,33.71,1.51l260.27,1.15c3.92,.02,2.94-.54,2.95-4.55l.95-215.75"/><path class="cls-6" d="M209.41,910.52c45.77,1.12,90.02-7.75,129.21-31.76-38.39-20.34-86.52-24.2-128.94-29.06-1.35,4.76,5.48,3.41,8.68,3.67,4.89,.4,9.77,.9,14.65,1.47,9.68,1.13,19.3,2.53,28.89,4.25,19.67,3.54,38.3,8.69,55.19,19.57-12.53,11.99-32.71,18.84-49.37,22.24-11.01,2.25-21.81,3.98-32.96,5.41-5.09,.65-26.27-.74-25.35,4.21"/><path class="cls-6" d="M209.44,904.36c31.79-1.24,66.21-5.38,92.25-24.92-22.49-20.63-63.34-21.19-91.91-23.2,.23,3.06,13.96,2.17,17.67,2.45,8.04,.62,15.99,1.62,23.94,2.94,16.04,2.66,30.42,7.74,43.54,17.35-8.2,10.57-25.59,15.34-38.06,17.99-5.94,1.26-46.92,4.98-47.44,7.38"/><path class="cls-6" d="M209.58,901.02c27.7-1.46,54.75-6.67,78.18-22.07-7.53-8.15-22.19-11.25-32.6-13.28-15.08-2.93-30.1-4.65-45.39-6.06l-.14,2.03c25.32-.75,50.17,6.11,72.64,17.29-10.73,7.38-23.6,11.47-35.97,15.05-5.02,1.45-36.52,4.68-36.73,7.04"/><path class="cls-6" d="M209.49,892.25c17.25,1,33.7-5.2,48.72-13-15.5-6.28-31.86-10.56-48.62-10.85l-.11,23.85"/><path class="cls-6" d="M209.25,917.48c30.21-1.89,60.42-4.36,90.01-11.11,8.76-2,17.32-4.23,25.96-6.68,5.76-1.63,10.88-5.89,16.52-8.19,14.59-5.94,29.56-9.54,44.99-12.53-29.62-2.18-55.1-14.72-83.43-21.81-15.23-3.81-30.73-6.97-46.3-9.02-8.97-1.18-17.86-2.08-26.88-2.82-4.37-.36-20.57,1.21-20.29-2.58,22.48,1.18,45.18,2.41,67.45,5.83,11.45,1.76,23.14,3.21,34.31,6.34,11.01,3.08,21.23,7.85,32.25,10.9,48.39,13.39,99.62,9.86,149.27,10.38,4.36,.05,8.72,.09,13.08,.14,2.13,8.34-16.26,4.76-21.29,4.82-17.22,.21-34.44,.43-51.66,.64-19.75,.25-39.46-.87-58.69,4.23-21.68,5.75-42.01,15.2-63.72,20.85-20.96,5.45-42.86,9.71-64.48,11.33-12.39,.93-24.64,1.47-37.06,1.77-.01,.44,.07-3.13-.03-2.49"/><path class="cls-6" d="M506.33,892.16c-47.6-2.16-95.19,1.24-141.93,10.29-21.53,4.17-40.05,16.27-61.37,21.04-23.61,5.29-47.17,7.43-71.3,8.22-7.45,.25-14.96-.14-22.42-.23-.34,4.36,9.11,2.49,12.67,2.45,5.2-.06,10.41-.21,15.61-.49,12.44-.66,24.79-1.83,37.17-3.25,22.12-2.53,42.29-8.47,63.07-15.8,46.83-16.53,94.71-15.66,143.76-17.51,4.23-.16,27.08,2.32,24.74-4.73"/><path class="cls-6" d="M506.08,901.07c-34.47-.85-69.35,.71-103.62,4.47-16.68,1.83-33.54,3.78-49.78,8.1-9.17,2.44-17.63,4.67-26.25,8.56-9.28,4.18-14.5,8.52-22.05,15.5,3.23,.12,7.46,.83,9.41-.59,3.36-2.45,5.69-7.06,9.71-9.74,7.37-4.91,16.56-7.09,24.96-9.5,18.09-5.2,36.93-7.06,55.56-9.24,16.42-1.92,33.24-3.17,49.77-3.5,10.41-.2,20.82-.41,31.23-.61,3.78-.07,22.73,2.32,21.06-3.45"/><path class="cls-6" d="M323.79,938.88c4.18-11.89,25.7-16.55,36.3-19.17,14.85-3.68,30.23-5.98,45.44-7.45,33.42-3.23,66.98-3.71,100.52-4.91,.3,3.7-11.64,2.33-14.54,2.46l-34.94,1.55c-15.19,.67-30.4,1.13-45.55,2.42-16.11,1.37-31.99,4.14-47.61,8.27-7.43,1.97-14.26,4.93-20.89,8.75-3.55,2.05-5.99,4.79-8.89,7.72-1.46,1.48-7.78,.3-9.85,.35"/><path class="cls-6" d="M506.01,917.61c-26-3.1-52.24-2.56-78.33-1.49-22.95,.95-63,.53-76.03,22.84,6.21,1.89,9-4.97,14.43-8.06,5.89-3.35,12.54-4.95,19.01-6.78,13.49-3.81,28.18-4.41,42.1-5.17,13.09-.71,26.11-.21,39.19,.45,10.16,.51,31.84-1.09,39.59,6.65l.04-8.44"/><path class="cls-6" d="M371.23,939.09c16.22-13.59,45.84-12.57,65.68-12.98,20.38-.41,43.69-2.75,62.81,5.7,4.4,1.94,10.42,8.27,1.97,7.81-4.41-.24-9.97-3.84-14.36-4.96-10.67-2.71-21.95-5.19-33.01-5.39-24.91-.45-47.43,3.12-71.38,9.75-3.45,.95-8.13-.03-11.7,.06"/><path class="cls-11" d="M313.67,938.46l-42.42,.15c16.62-.4,33.23-3.85,48.16-11.18-3.53,2.32-7.4,6.52-5.75,11.03"/><path class="cls-6" d="M408.63,939.26c22.6-5.81,46.57-5.84,69.01,.26-22.96-.1-46.12-.78-69.01-.26"/><path class="cls-6" d="M506.22,870.05c-22.57-.19-45.15,.16-67.72-.32-23.39-.5-48.11,.32-71.05-4.66-20.73-4.5-39.62-15.62-60.88-19.15-22.05-3.66-44.72-5.43-66.98-7.32-9.89-.84-19.8-1.64-29.72-.92v-1.98c44.2,1.43,87.78,4.42,130.65,15.45,9.32,2.4,18.97,7.46,28.26,8.69,11.44,1.52,22.9,2.58,34.4,3.56,22.97,1.96,46.09,2.36,69.13,2.33,11.27-.01,22.53-.36,33.8-.66,.03,1.53,.44,3.49,.1,4.98"/><path class="cls-6" d="M506.13,861.18c-44.21-.96-91.49,2.99-134.79-7.58-9.75-2.38-18.72-7.76-28.1-10.08-10.67-2.64-21.37-5.07-32.15-7.2-23.77-4.69-48.47-3.1-72.58-3.42-6.98-.09-13.96-.18-20.94-.27-.26,0-10.54,.25-7.8-1.92,1.27-1.01,7.55,.03,9.09,.04l23.66,.1c23.35,.1,46.49-1.04,69.54,2.9,10.68,1.83,21.67,3.59,31.96,7.08,9.88,3.36,19.01,7.6,29.29,9.91,20.24,4.55,42.3,3.57,62.91,4.38l49.16,1.94c3.66,.14,22.78-2.03,20.75,4.11"/><path class="cls-6" d="M389,796.68c-7.96,1.11-15.66,2.73-23.15,5.72-7.14,2.85-13.3,7.89-20.39,10.61-15.31,5.86-32.11,8.72-48.38,10.49,20.87,1.77,41.96,9.65,61.21,17.63,20.88,8.65,47.3,8.47,69.6,9.92,23.13,1.51,46.34,2.24,69.52,2.44,2.6,.02,5.2,.04,7.81,.06,1.74,0,1.57-2.59-.46-2.67-7.93-.31-15.86-.61-23.79-.92-12.07-.47-24.12-1.18-36.17-1.86-23-1.3-46.28-3.37-68.97-7.47-19.82-3.58-38.36-14.26-58.49-15.77,15.16-1.93,27.61-7.01,40.86-14.19,15.16-8.23,28.95-11.53,45.99-12.44,17.11-.92,34.56-.87,51.62,.82,17.51,1.74,33.5,7.96,50.9,9.55,1.09-4.66-10.17-3.5-13.52-3.82-3.83-.36-7.9-1.99-11.69-2.79-10.08-2.13-20.29-3.75-30.54-4.82-20.7-2.16-41.22-1.81-61.95-.48"/><path class="cls-6" d="M506.21,844.04c-27.02,.75-54.32,2.03-81.28-.29-24.6-2.11-57.98-3.06-78.47-18.15,18.58-21.35,49.96-24.14,76.25-23.55,13.94,.31,27.99,.98,41.85,2.64,7.33,.88,14.62,1.96,21.62,4.35,4.63,1.58,21.27,.77,20.5,5.88-24.79-2.69-48.45-8.88-73.54-10.01-27.15-1.23-52.47,4.5-74.66,20.12,21.93,10.67,48.05,13.92,72.11,15.2,12.61,.67,25.2,1.39,37.82,1.89,12.05,.48,25.99,2.25,37.81-.7v2.62"/><path class="cls-11" d="M307.21,824.18c-32.47,.21-64.94,.42-97.42,.62-.58-4.26,10.15-2.23,13.2-2.23,11.5-.03,23.01-.07,34.51-.11,18.05-.05,36.1-.11,54.15-.16-1.47,.62-2.93,1.35-4.44,1.88"/><path class="cls-11" d="M209.84,813.11c22.45,.1,44.9,.05,67.34-.52,21.04-.53,46.27,1.62,65.72-7.3,40.68-18.67,88.88-15.93,132.43-11.38,10.56,1.1,20.78,3.5,31.07,6.03,1.85-12.9-117.92-11.58-131.56-8.77-9.6,1.97-19.8,5.82-28.91,9.41-8.47,3.34-17.35,4.54-26.4,5.75-23.77,3.18-48.35,1.96-72.26,2.39-9.2,.17-18.4,.33-27.6,.5-3.53,.06-11.8-2.04-9.82,3.89"/><path class="cls-6" d="M210.03,798.97c45.97-.33,92.7,2.88,137.99-6.11,21.35-4.24,41.89-7.29,63.78-7.75,21.54-.46,43.54,1.07,64.97,3.29,10.04,1.04,19.96,2.21,29.58,5.34,1.71-5.47-21.43-7.04-25.8-7.58-11.59-1.44-23.16-2.58-34.83-3.19-24.37-1.27-48.47-.32-72.77,1.53-19.61,1.49-39,5.3-58.59,6.91-23.17,1.89-46.36,3.22-69.59,4.23-5.95,.26-11.92,.4-17.88,.54-3.97,.09-17.48-2.11-16.85,2.8"/><path class="cls-6" d="M210.13,776.94c46.87,.07,93.7,1,140.57,.08,45.22-.88,91.36-5.24,136.42,.62,6.68,.87,12.77,2.14,19.29,3.85,.14-7.36-1.87-5.9-8.68-6.26-5.72-.3-11.44-.61-17.16-.84-11.56-.45-23.11-.89-34.68-1.11-24.57-.46-49.11-.5-73.68-.16-51.68,.73-103.39,.38-155.07,.57-3.12,.01-8.47-1.66-7.01,3.23"/><path class="cls-11" d="M210.1,755.37c22.41-.94,44.85-.94,67.22,.61,21.89,1.51,43.3,7.35,65.31,8.74,24.15,1.53,47.87,1.24,71.99-.49,21.88-1.57,43.27-4.99,65.32-5.18,9.11-.08,18.07,.07,26.96,2.19,.03-7.11,1.57-8.4-5.54-8.38-6.44,.02-12.87,.15-19.3,.35-10.48,.33-21.1,.95-31.5,2.29-23,2.97-45.47,6.55-68.71,7.4-23.34,.85-46.83-.59-69.91-4.12-22.45-3.43-45.3-4.4-67.95-5.84-6.21-.39-12.43-.8-18.65-1.02-4.03-.15-17.15-3.02-15.25,3.45"/><path class="cls-6" d="M210.13,747.77c22.71,.1,45.48,.56,68.11,2.54,22.66,1.98,45.33,7.06,68.21,8.99,22.21,1.87,42.52,.73,64.08-4.66,20.99-5.24,42.42-9.53,64.15-8.69,10.77,.41,21.53,.82,32.3,1.24,1.22-4.95-4.97-3.34-8.38-3.46-5.65-.2-11.3-.34-16.95-.48-10.49-.26-20.97-.12-31.46,.23-11.29,.37-22.55,1.04-33.79,2.19-10.74,1.1-20.54,4.87-31.15,6.3-44.98,6.08-90.32-3.53-135.26-6.15-5.3-.31-40.91-3.62-39.85,1.95"/><path class="cls-6" d="M506.24,836.03c-20.02,.16-39.61,2.01-59.71,1.09-23.24-1.07-49.37-.91-70.32-12,19.62-12.8,44.39-14.6,67.11-14.44,21.16,.15,41.96,9.31,63.13,7.42,.59,7.76-4.32,5.27-11,5.4-4.43,.08-8.93,.49-13.34-.08-9.17-1.19-16.86-5.2-25.65-7.5-21.92-5.73-42.41-2.36-61.89,8.65,16.53,8.39,38.12,10.8,56.41,9.36,8.33-.65,16.77-2.51,25.12-1.74,10.2,.95,19.74,1.42,30.15,1.22v2.62"/><path class="cls-6" d="M412.3,824c15.41,9.02,35.96,5.83,52.53,2.76-16.74-8.89-35.04-8.91-52.53-2.76"/><path class="cls-11" d="M506.4,829.48c-8.79,0-19.21,.73-27.64-2.02,4.54,.04,27.65-1.68,27.64,2.02"/><path class="cls-6" d="M210.19,735.24c22.3,.1,45.47-.7,67.59,2.41,9.48,1.33,18.8,5.6,28.07,8.13,10.76,2.93,21.86,4.33,32.97,4.85,18.67,.88,43.82,.8,61.31-6.28,20.04-8.12,39.18-7.54,60.5-7.86,14.91-.22,29.83-.45,44.74-.67,1.19-.02,2.83-.77,1.46-2.43-.61-.74-6.78-.1-7.61-.11-5.66-.07-11.31-.1-16.97-.15-21.46-.18-43.16-.84-64.51,1.63-21.71,2.51-40.7,12.3-63.13,11.94-21.94-.36-42.06-6.92-63.37-11.22-26.14-5.27-54.49-2.52-81.04-2.89v2.66"/><path class="cls-6" d="M295.6,729.79c16.96,6.7,34.68,11.65,52.88,13.1,15.14,1.21,38.94-3.23,49.69-14.55-33.3-8.88-70.4-12.55-102.57,1.45"/><path class="cls-6" d="M210.34,728.7c19.2,.09,38.4-.06,57.59-.64,8.5-.26,17.59-.05,25.66-2.88,8.31-2.91,16.23-6.75,25.27-6.77-8.4,.03-18.83-1.62-26.8,.6-5.85,1.63-10.2,4.24-16.58,4.5-12.87,.52-25.73,1.05-38.6,1.57-3.86,.16-27.61-1.28-26.54,3.61"/><path class="cls-6" d="M373.09,718.65c42.72,9.78,86.87,11.43,130.66,10.85,1.97-.03,5.04-1.8,1.93-1.82-2.5-.01-5-.01-7.49-.03-6.1-.05-12.19-.2-18.29-.35-10.51-.27-21.08-.55-31.56-1.41-11.54-.95-23.51-1.51-34.79-4.35-12.54-3.16-24.75-2.67-37.81-2.85-.88-.01-1.77-.02-2.65-.04"/><path class="cls-11" d="M506.94,725.15c-20.47-.1-46.55,2.06-65.69-6.2,11.41,.19,22.72,.2,34.08,1.35,5.99,.61,11.98,1.14,17.97,1.71,3.2,.31,13.77-.23,13.64,3.14"/><path class="cls-11" d="M210.25,721.19c18.79,.07,41.28,2.41,59.44-2.9-10.97-.03-21.93-.05-32.9-.07-4.03,0-27.96-2.86-26.54,2.98"/><path class="cls-16" d="M299.58,906.49c29.25-6.34,54.79-21.83,84.41-27.53-15.97-1.95-31.94-4.82-47.21-9.95-14.64-4.92-28.16-10.63-43.43-14.08,19.91,4.76,38.92,12.27,58.72,17.02,22.68,5.44,44.57,6.65,67.8,6.76-20.36,.9-40.86,1.7-60.58,7.29-20.2,5.73-38.32,18.55-59.71,20.5"/><path class="cls-16" d="M264.7,901.52c18.87-3.09,35.83-11.72,51.34-22.56-9.9-11.33-31.78-15.39-45.81-18.06-19.9-3.79-40.27-7.58-60.56-8.11l.13-.76c18.87,1.31,39.46,2.51,57.7,7.81,18.04,5.24,35.37,6.82,50.53,19.13-13.17,13.85-35.45,18.58-53.32,22.56"/><path class="cls-16" d="M294.94,878.99c-10.77-8.9-24.6-13.04-37.91-16.33,11.93,1.59,25.33,5.9,35.08,13.12,6.41,4.74,2.97,5.67-3.38,9.06-6.75,3.61-13.78,6.5-20.87,9.35,8.66-3.33,21.48-7.4,27.08-15.2"/><path class="cls-16" d="M282.27,878.93c-11.75-7.32-24.63-11.79-38.22-14.1,14.41,1.75,27.56,7.06,39.91,14.53-10.53,6.37-22.26,10.59-34.12,13.65,11.25-3.55,22.29-8.04,32.43-14.08"/><path class="cls-16" d="M209.49,892.25c17.35,.09,33.81-4.2,48.72-13-3.76-2.05-16.95,6.9-21.7,8.39-8.78,2.76-17.9,3.71-27.02,4.6"/><path class="cls-16" d="M258.21,879.25c-9.41-4.19-19.56-8.15-29.93-8.87,4.91,.45,9.69,1.64,14.39,3.1,4.38,1.36,11.19,6.51,15.54,5.77"/><path class="cls-16" d="M305.21,846.11c12.04,1.39,24.02,4.16,35.3,8.63,10.14,4.02,20.29,10.18,31.3,11.5-22.97-4.31-43.38-15.93-66.6-20.13"/><path class="cls-16" d="M313.69,836.44c9.68,2.29,21.42,3.21,30.4,7.5,8.22,3.93,17.39,8.46,26.51,9.63-8.07-1.44-17.75-3.26-24.71-7.78-8.63-5.61-22.26-6.68-32.19-9.35"/><path class="cls-16" d="M304.71,824.59c12.69,2.43,25.4,5.46,37.62,9.69,11.58,4.01,21.98,10.92,34.63,11.44-24.85-4.08-47.13-18.45-72.25-21.13"/><path class="cls-16" d="M373.04,836.16c-5.5-1.55-26.31-5.76-23.96-12.6,2.98-8.66,22.55-14.22,30.04-16.67-10.29,2.19-23.43,6.65-30.09,15.35-3.99,5.21,.68,6.27,6.05,8.69,5.72,2.58,11.98,3.95,17.96,5.23"/><path class="cls-16" d="M314.02,820.71c13.54-1.49,27.83-4.31,39.18-12.24-10.79,7.9-26.36,9.95-39.18,12.24"/><path class="cls-16" d="M323.67,805.55c19.75-.4,35.87-12.85,55.52-14.7-19.45,2.38-36.21,12.54-55.52,14.7"/><path class="cls-16" d="M376.17,825.11c10.95-6.7,23.33-10.12,35.85-12.42-11.99,1.77-23.34,6.25-33.82,12.22,8.78,5.1,19.7,6.87,29.51,8.87-10.17-1.44-22.9-2.61-31.53-8.67"/><path class="cls-16" d="M412.3,824c6.24-3.3,13.71-5.3,20.79-4.76-6.65,.09-13.44,1.54-19.18,4.98,3.01,1.33,6.06,2.65,9.27,3.42-3.69-.59-7.86-1.32-10.87-3.64"/><path class="cls-16" d="M291.1,792.87c34.92-1.07,68.98-9.24,103.87-10.09-34.92,1.81-69.08,7.18-103.87,10.09"/><path class="cls-16" d="M288.72,757.41c21.87,3.94,44,7.17,66.23,7.89-22.29,.15-44.53-3.04-66.23-7.89"/><path class="cls-16" d="M286.63,751.49c23.44,4.34,47.04,7.75,70.87,8.76-23.7-1.72-47.36-5.36-70.87-8.76"/><path class="cls-16" d="M256.32,735.74c31.05,0,59.19,14.78,90.68,14.75-15.55-.73-31.6-2.04-46.8-5.58-14.73-3.43-28.55-8.95-43.88-9.17"/><path class="cls-16" d="M295.6,729.79c12.85,5.42,26.29,9.15,40.05,11.36-11.19-3.21-24.26-5.65-34.56-11.13,8.74-8.42,25.07-8.68,36.34-9.55-11.76,1.43-32.6,1.15-41.83,9.31"/><path class="cls-16" d="M274.52,723.58c5.91,1.49,11.81-1.02,16.48-4.57-4.88,3.08-10.75,4.5-16.48,4.57"/><path class="cls-16" d="M371.23,939.09c5.69-6.06,17.44-7.89,25.25-9.14,12.06-1.92,24.09-3.04,36.27-3.93-20.08,.47-48.09-.47-64.21,13.22-.57,.05,3.47-.3,2.7-.16"/><path class="cls-16" d="M351.65,939.01c4.94-15.44,31.3-18.19,44.41-20.32-17.08,1.01-37.39,4.69-46.1,20.9-.15,.06,1.94-.68,1.69-.58"/><path class="cls-16" d="M323.79,938.88c10.64-19.22,46.07-21.75,65.11-24.45-23.52,2.44-51.06,6.37-68.06,24.18,.96,.05,2.08,.32,2.95,.27"/><path class="cls-9" d="M317.06,934c-4.99,2.82-10.76,3.9-16.4,4.61,5.26,0,17.24,3.19,16.4-4.61"/><path class="cls-16" d="M282.65,937.65c10.52-1.62,20.79-2.75,29.96-8.39,9.31-5.74,18.77-10.43,29.43-13.12-11,2.51-21.8,6.48-30.95,13.17-7.87,5.76-19.1,6.39-28.45,8.35"/><path class="cls-16" d="M453.49,815.12c10.37,3.3,19.9,8.28,30.98,8.58-10.8-1.24-20.49-6-30.98-8.58"/><path class="cls-16" d="M458.48,833.29c4.92-.79,10.22-1.85,15.2-1.2-4.38-2.47-10.79-.25-15.2,1.2"/><path class="cls-16" d="M468.3,808.43c9.45,1.22,18.36,4.83,27.83,5.61-8.94-2.28-18.54-5.56-27.83-5.61"/><path class="cls-16" d="M506.41,799.94c-13.83-3.42-27.99-6.47-42.26-7.15,13.34,1.97,30.51,2.65,42.59,9.05l-.33-1.9"/><path class="cls-16" d="M506.35,793.74c-16.17-4.4-33.04-6.61-49.77-6.89,16.75,1.21,33.69,3.26,49.77,8.24v-1.35"/><path class="cls-16" d="M506.4,781.5c-23.55-7.33-49.89-6.55-74.26-6.15,12.22-.41,24.66-.39,36.84,.76,6.57,.62,13.29,1.05,19.77,2.33,3.27,.65,17.4,4.53,17.64,3.06"/><path class="cls-16" d="M441.25,718.95c10.9,3.7,22.43,4.93,33.87,5.38-11.33-.57-25.92-.37-36.27-5.52,.8,.05,1.6,.09,2.4,.14"/><path class="cls-16" d="M373.09,718.65c16.36,3.91,32.41,6.61,49.14,7.98-16.47-1.24-32.71-8.08-49.14-7.98"/><path class="cls-16" d="M378.51,744.46c11.12-2.69,22.07-8.14,33.55-8.88-10.88,2.38-22.26,9.41-33.55,8.88"/><path class="cls-16" d="M500.34,939.45c-10.79-7.08-25.13-8.45-37.65-9.49,6.23,.44,12.52,1.36,18.6,2.74,6.17,1.4,13.22,6.27,19.05,6.75"/><path class="cls-16" d="M505.97,926.05c-9.07-7.49-26.6-6.05-37.62-6.2,9.61,.06,31.32-1.33,37.53,7.64l.09-1.43"/></g></g><g><path class="cls-17" d="M451.15,924.08s-.54-.08-1.24-.4c-.69-.31-1.54-.88-2.09-1.77-.55-.88-.68-1.92-.64-2.64l.09-1.24s.14,.02,.36,.09c.22,.07,.54,.22,.86,.44,.65,.43,1.36,.98,1.87,1.79,.5,.8,.68,1.72,.75,2.45,.08,.73,.03,1.28,.03,1.28Z"/><g><path class="cls-10" d="M448.39,922.07c.44,.74,1.11,1.13,1.92,1.23l10.59-12.58-2.44-4.2-10.64,12.64c-.05,1.17,.13,2.17,.58,2.91Z"/><g><ellipse class="cls-20" cx="458.79" cy="909.46" rx="3.35" ry="6.32" transform="translate(-539.35 706.17) rotate(-51.72)"/><ellipse class="cls-10" cx="459.14" cy="909.1" rx="3.35" ry="6.32" transform="translate(-538.93 706.31) rotate(-51.72)"/></g></g></g><g><path class="cls-17" d="M248.49,1091.86s-.04-.55,.03-1.28c.08-.74,.26-1.65,.75-2.45,.5-.81,1.22-1.36,1.87-1.79,.33-.21,.64-.36,.86-.44,.23-.08,.36-.09,.36-.09l.09,1.24c.04,.72-.09,1.76-.64,2.64-.55,.89-1.4,1.45-2.09,1.77-.7,.32-1.24,.4-1.24,.4Z"/><g><path class="cls-10" d="M251.26,1089.86c-.44,.74-1.11,1.13-1.92,1.23l-10.59-12.58,2.44-4.2,10.64,12.64c.05,1.17-.13,2.17-.58,2.91Z"/><g><ellipse class="cls-20" cx="240.86" cy="1077.24" rx="6.32" ry="3.35" transform="translate(-615.59 380.85) rotate(-38.28)"/><ellipse class="cls-10" cx="240.51" cy="1076.88" rx="6.32" ry="3.35" transform="translate(-615.44 380.55) rotate(-38.28)"/></g></g></g><g class="cls-19"><g><path class="cls-8" d="M1507.76,753.87l-874.27-3.32c-3.14-.01-3.1,411.39-3.22,444.22l-.77,201.61c-.03,8.97,89.17,4.35,99.42,4.38l767.73,2.91c11.56,.04,8.66-1.6,8.7-13.41l2.42-636.41"/><path class="cls-6" d="M630.04,1318.37c135.02,3.22,265.53-23.01,381.07-93.92-113.27-59.94-255.24-71.22-380.39-85.48-3.99,14.03,16.18,10.04,25.6,10.8,14.43,1.16,28.83,2.65,43.22,4.32,28.56,3.3,56.94,7.42,85.23,12.49,58.03,10.41,113,25.56,162.84,57.63-36.93,35.38-96.45,55.62-145.59,65.7-32.48,6.66-64.32,11.78-97.21,16.01-15.01,1.93-77.5-2.12-74.78,12.45"/><path class="cls-6" d="M630.11,1300.2c93.77-3.7,195.3-15.99,272.05-73.67-66.38-60.82-186.86-62.39-271.14-68.26,.68,9.02,41.17,6.37,52.13,7.21,23.72,1.81,47.16,4.75,70.62,8.62,47.31,7.8,89.76,22.77,128.47,51.11-24.17,31.18-75.46,45.3-112.22,53.12-17.52,3.73-138.38,14.78-139.92,21.87"/><path class="cls-6" d="M630.52,1290.36c81.69-4.35,161.47-19.77,230.56-65.23-22.22-24.01-65.47-33.15-96.19-39.11-44.49-8.63-88.8-13.66-133.91-17.79l-.4,5.97c74.69-2.27,148,17.94,214.31,50.86-31.63,21.79-69.59,33.86-106.06,44.46-14.8,4.3-107.7,13.88-108.32,20.83"/><path class="cls-6" d="M630.24,1264.47c50.87,2.91,99.41-15.4,143.69-38.42-45.74-18.49-93.98-31.08-143.42-31.92l-.27,70.34"/><path class="cls-6" d="M629.59,1338.91c89.11-5.63,178.2-12.96,265.47-32.93,25.82-5.91,51.09-12.52,76.57-19.76,17-4.83,32.08-17.39,48.71-24.18,43.03-17.55,87.17-28.19,132.68-37.05-87.39-6.37-162.56-43.31-246.14-64.18-44.94-11.22-90.64-20.51-136.58-26.53-26.45-3.47-52.68-6.1-79.28-8.27-12.88-1.05-60.66,3.62-59.86-7.57,66.31,3.44,133.26,7.03,198.96,17.08,33.78,5.17,68.25,9.43,101.22,18.64,32.47,9.07,62.65,23.12,95.14,32.09,142.77,39.41,293.87,28.91,440.31,30.36,12.86,.13,25.71,.25,38.57,.38,6.3,24.6-47.95,14.06-62.8,14.26-50.8,.66-101.59,1.32-152.38,1.99-58.25,.76-116.39-2.5-173.11,12.59-63.95,17.01-123.88,44.92-187.93,61.61-61.8,16.11-126.4,28.73-190.17,33.54-36.53,2.75-72.68,4.4-109.31,5.28-.03,1.3,.21-9.22-.1-7.35"/><path class="cls-6" d="M1505.83,1263.68c-140.42-6.3-280.78,3.85-418.62,30.62-63.5,12.33-118.11,48.07-180.97,62.18-69.63,15.64-139.11,22-210.31,24.39-21.99,.74-44.13-.37-66.13-.63-.99,12.86,26.88,7.34,37.38,7.21,15.35-.19,30.71-.64,46.03-1.47,36.71-1.98,73.11-5.45,109.62-9.65,65.23-7.5,124.73-25.06,185.99-46.73,138.1-48.86,279.35-46.38,424.01-51.92,12.48-.48,79.88,6.8,72.98-14.01"/><path class="cls-6" d="M1505.1,1289.95c-101.69-2.44-204.56,2.22-305.64,13.37-49.18,5.43-98.94,11.21-146.83,23.99-27.04,7.22-51.99,13.8-77.41,25.28-27.36,12.35-42.77,25.15-65,45.77,9.53,.34,22.02,2.44,27.77-1.76,9.91-7.25,16.77-20.83,28.62-28.74,21.72-14.5,48.83-20.93,73.61-28.06,53.35-15.36,108.92-20.89,163.87-27.36,48.44-5.7,98.06-9.42,146.79-10.41,30.7-.62,61.4-1.24,92.1-1.86,11.16-.22,67.06,6.81,62.12-10.22"/><path class="cls-6" d="M967.48,1401.82c12.3-35.08,75.78-48.85,107.03-56.61,43.8-10.88,89.14-17.69,134.02-22.06,98.57-9.6,197.55-11.06,296.5-14.65,.88,10.91-34.33,6.9-42.87,7.28l-103.05,4.64c-44.8,2.02-89.66,3.4-134.36,7.22-47.53,4.06-94.35,12.27-140.43,24.5-21.91,5.81-42.05,14.57-61.6,25.85-10.46,6.04-17.67,14.15-26.2,22.78-4.32,4.37-22.94,.91-29.04,1.06"/><path class="cls-6" d="M1504.92,1338.75c-76.69-9.1-154.09-7.47-231.05-4.24-67.7,2.84-185.84,1.69-224.22,67.5,18.31,5.56,26.53-14.68,42.55-23.79,17.38-9.88,36.97-14.63,56.06-20.04,39.77-11.27,83.13-13.07,124.18-15.33,38.6-2.12,77.01-.67,115.61,1.26,29.96,1.5,93.91-3.28,116.78,19.53l.09-24.9"/><path class="cls-6" d="M1107.41,1402.35c47.83-40.11,135.18-37.17,193.7-38.4,60.13-1.26,128.86-8.18,185.29,16.7,12.97,5.72,30.74,24.36,5.82,23.04-13-.69-29.41-11.31-42.38-14.59-31.49-7.96-64.75-15.26-97.39-15.83-73.49-1.28-139.89,9.3-210.54,28.88-10.17,2.82-23.98-.06-34.5,.2"/><path class="cls-11" d="M937.61,1400.59l-125.12,.52c49.03-1.2,98.02-11.42,142.05-33.08-10.4,6.85-21.82,19.25-16.93,32.56"/><path class="cls-6" d="M1217.71,1402.77c66.65-17.17,137.35-17.32,203.55,.65-67.73-.26-136.05-2.21-203.55-.65"/><path class="cls-6" d="M1505.45,1198.44c-66.59-.51-133.17,.55-199.76-.83-68.99-1.43-141.9,1.03-209.6-13.63-61.15-13.24-116.9-46-179.62-56.37-65.05-10.76-131.92-15.93-197.59-21.47-29.18-2.46-58.42-4.8-87.67-2.65l.02-5.85c130.34,4.14,258.92,12.86,385.39,45.35,27.49,7.06,55.96,21.97,83.38,25.59,33.75,4.46,67.57,7.56,101.49,10.44,67.76,5.75,135.96,6.87,203.92,6.74,33.26-.06,66.47-1.11,99.71-2.01,.1,4.51,1.3,10.3,.31,14.69"/><path class="cls-6" d="M1505.18,1172.3c-130.4-2.76-269.87,8.97-397.61-22.1-28.77-7-55.23-22.86-82.9-29.69-31.47-7.77-63.05-14.93-94.86-21.18-70.12-13.79-142.99-9.07-214.1-9.96-20.59-.26-41.18-.51-61.77-.77-.76,0-31.08,.77-23.01-5.64,3.75-2.98,22.27,.08,26.82,.1l69.8,.26c68.87,.26,137.14-3.16,205.14,8.43,31.51,5.37,63.93,10.54,94.29,20.84,29.16,9.89,56.08,22.37,86.42,29.17,59.71,13.38,124.77,10.45,185.57,12.81l145.01,5.63c10.79,.42,67.18-6.02,61.21,12.09"/><path class="cls-6" d="M1159.55,982.25c-23.49,3.28-46.18,8.08-68.29,16.92-21.06,8.42-39.22,23.31-60.12,31.32-45.16,17.33-94.7,25.77-142.67,31.03,61.56,5.19,123.78,28.4,180.57,51.89,61.61,25.49,139.53,24.89,205.31,29.13,68.24,4.4,136.7,6.51,205.08,7.06,7.68,.06,15.35,.12,23.03,.15,5.12,.02,4.63-7.64-1.36-7.87-23.39-.89-46.78-1.78-70.17-2.67-35.6-1.35-71.14-3.43-106.71-5.42-67.86-3.8-136.52-9.86-203.45-21.91-58.48-10.53-113.16-42-172.56-46.41,44.72-5.71,81.44-20.72,120.49-41.93,44.72-24.3,85.37-34.06,135.62-36.79,50.46-2.74,101.95-2.64,152.28,2.34,51.66,5.11,98.83,23.42,150.16,28.08,3.2-13.74-29.99-10.32-39.9-11.25-11.3-1.07-23.32-5.85-34.48-8.21-29.74-6.27-59.85-11.03-90.08-14.16-61.06-6.33-121.59-5.27-182.75-1.31"/><path class="cls-6" d="M1505.38,1121.74c-79.68,2.25-160.23,6.09-239.76-.7-72.57-6.19-171.02-8.92-231.49-53.38,54.77-63.01,147.31-71.31,224.89-69.62,41.13,.9,82.57,2.83,123.44,7.7,21.62,2.57,43.13,5.77,63.77,12.79,13.66,4.64,62.75,2.22,60.49,17.31-73.14-7.9-142.93-26.09-216.94-29.4-80.09-3.58-154.76,13.37-220.17,59.49,64.71,31.43,141.75,40.96,212.73,44.71,37.19,1.96,74.35,4.07,111.56,5.52,35.55,1.38,76.66,6.6,111.52-2.13l-.03,7.71"/><path class="cls-11" d="M918.34,1063.5c-95.78,.67-191.56,1.35-287.35,2.02-1.73-12.57,29.93-6.58,38.92-6.62,33.93-.12,67.87-.25,101.8-.37,53.24-.19,106.48-.39,159.72-.58-4.34,1.84-8.65,3.99-13.09,5.55"/><path class="cls-11" d="M631.13,1031.04c66.21,.25,132.45,.05,198.64-1.65,62.07-1.6,136.49,4.7,193.83-21.65,119.97-55.14,262.13-47.16,390.61-33.8,31.16,3.24,61.3,10.27,91.65,17.72,5.44-38.06-347.84-33.93-388.08-25.63-28.3,5.84-58.41,17.2-85.26,27.82-24.98,9.88-51.16,13.42-77.88,17.01-70.1,9.41-142.61,5.87-213.15,7.18-27.14,.5-54.27,1.01-81.41,1.51-10.43,.19-34.81-5.99-28.96,11.49"/><path class="cls-6" d="M631.66,989.33c135.59-1.05,273.44,8.34,407.02-18.26,62.98-12.54,123.54-21.57,188.1-22.99,63.54-1.39,128.43,3.07,191.64,9.58,29.61,3.05,58.88,6.47,87.26,15.69,5.02-16.12-63.23-20.71-76.11-22.31-34.19-4.24-68.32-7.58-102.73-9.35-71.88-3.71-142.96-.86-214.66,4.66-57.84,4.45-115.04,15.72-172.82,20.48-68.34,5.63-136.75,9.58-205.25,12.61-17.56,.78-35.17,1.21-52.74,1.61-11.7,.27-51.55-6.2-49.7,8.28"/><path class="cls-6" d="M631.91,924.35c138.24,.12,276.38,2.77,414.62-.01,133.38-2.68,269.47-15.63,402.38,1.59,19.7,2.55,37.67,6.3,56.91,11.32,.41-21.71-5.52-17.41-25.61-18.44-16.87-.87-33.74-1.79-50.61-2.43-34.09-1.31-68.18-2.59-102.29-3.21-72.46-1.3-144.86-1.39-217.32-.32-152.43,2.24-304.97,1.32-457.42,1.95-9.21,.04-25-4.87-20.66,9.55"/><path class="cls-11" d="M631.77,860.73c66.09-2.82,132.28-2.84,198.28,1.67,64.57,4.41,127.73,21.59,192.67,25.66,71.23,4.47,141.2,3.56,212.36-1.58,64.54-4.66,127.63-14.8,192.67-15.41,26.88-.25,53.31,.19,79.54,6.42,.08-20.98,4.63-24.77-16.36-24.69-18.99,.07-37.95,.47-56.93,1.07-30.91,.98-62.24,2.83-92.91,6.81-67.83,8.79-134.11,19.41-202.66,21.95-68.86,2.56-138.12-1.66-206.21-12.03-66.22-10.09-133.63-12.9-200.46-17.1-18.32-1.15-36.66-2.32-55.01-2.98-11.88-.42-50.59-8.89-44.98,10.21"/><path class="cls-6" d="M631.86,838.32c66.98,.24,134.16,1.57,200.91,7.36,66.85,5.8,133.72,20.75,201.2,26.39,65.52,5.48,125.42,2.06,189.02-13.87,61.91-15.51,125.11-28.17,189.19-25.76,31.76,1.2,63.52,2.39,95.27,3.59,3.57-14.61-14.67-9.84-24.74-10.18-16.67-.57-33.33-.99-50.01-1.39-30.95-.74-61.85-.3-92.79,.73-33.31,1.11-66.51,3.1-99.67,6.53-31.69,3.27-60.56,14.39-91.87,18.64-132.67,18.02-266.43-10.26-398.98-17.89-15.65-.9-120.68-10.6-117.54,5.84"/><path class="cls-6" d="M1505.46,1098.1c-59.06,.5-116.82,6.01-176.13,3.31-68.54-3.12-145.63-2.58-207.45-35.27,57.84-37.8,130.92-43.15,197.93-42.72,62.42,.4,123.79,27.38,186.22,21.77,1.74,22.89-12.72,15.55-32.43,15.94-13.07,.25-26.34,1.47-39.33-.21-27.06-3.49-49.75-15.32-75.67-22.08-64.68-16.86-125.11-6.89-182.55,25.64,48.78,24.72,112.47,31.79,166.41,27.52,24.56-1.95,49.47-7.45,74.1-5.17,30.1,2.78,58.22,4.15,88.94,3.55l-.03,7.72"/><path class="cls-6" d="M1228.35,1062.8c45.48,26.57,106.09,17.12,154.97,8.06-49.39-26.2-103.37-26.23-154.97-8.06"/><path class="cls-11" d="M1505.9,1078.79c-25.93,.02-56.66,2.2-81.52-5.91,13.39,.11,81.57-5,81.52,5.91"/><path class="cls-6" d="M632,801.34c65.77,.25,134.13-2.15,199.38,6.98,27.96,3.92,55.46,16.49,82.8,23.92,31.75,8.63,64.48,12.73,97.25,14.26,55.07,2.56,129.26,2.27,180.82-18.64,59.1-23.98,115.55-22.32,178.44-23.31,43.99-.69,87.98-1.38,131.98-2.07,3.52-.06,8.36-2.27,4.3-7.16-1.81-2.19-20-.29-22.44-.32-16.69-.18-33.37-.28-50.06-.41-63.31-.49-127.32-2.4-190.27,4.91-64.02,7.44-120.04,36.36-186.2,35.33-64.72-1.01-124.08-20.33-186.93-32.97-77.1-15.5-160.73-7.35-239.05-8.37l-.03,7.84"/><path class="cls-6" d="M883.93,785.11c50.04,19.73,102.31,34.29,156.01,38.56,44.66,3.55,114.86-9.6,146.54-43.01-98.23-26.12-207.7-36.89-302.54,4.46"/><path class="cls-6" d="M632.45,782.05c56.62,.23,113.28-.25,169.87-1.99,25.09-.77,51.89-.18,75.67-8.53,24.52-8.61,47.86-19.95,74.53-20.01-24.77,.11-55.55-4.76-79.06,1.82-17.26,4.83-30.07,12.51-48.88,13.29-37.95,1.57-75.9,3.14-113.85,4.71-11.39,.47-81.45-3.72-78.28,10.71"/><path class="cls-6" d="M1112.5,752.12c126.03,28.78,256.26,33.55,385.43,31.75,5.82-.08,14.86-5.33,5.7-5.37-7.37-.03-14.73-.02-22.1-.08-17.99-.15-35.97-.55-53.95-1.01-31-.79-62.18-1.58-93.09-4.11-34.05-2.79-69.35-4.4-102.63-12.76-36.99-9.29-73.02-7.84-111.55-8.33-2.61-.03-5.21-.07-7.81-.1"/><path class="cls-11" d="M1507.33,771.05c-60.39-.27-137.3,6.18-193.77-18.17,33.67,.53,67.02,.55,100.52,3.93,17.66,1.78,35.35,3.33,53.02,5.01,9.43,.9,40.61-.69,40.24,9.23"/><path class="cls-11" d="M632.16,759.89c55.43,.18,121.76,7.03,175.32-8.67-32.35-.05-64.69-.11-97.04-.16-11.89-.02-82.49-8.38-78.28,8.83"/><path class="cls-16" d="M896.01,1306.31c86.26-18.77,161.57-64.49,248.92-81.35-47.12-5.72-94.22-14.17-139.27-29.27-43.2-14.48-83.07-31.32-128.12-41.46,58.74,14.01,114.82,36.12,173.23,50.08,66.92,15.99,131.48,19.55,199.99,19.81-60.06,2.71-120.53,5.09-178.67,21.61-59.58,16.93-112.99,54.77-176.08,60.58"/><path class="cls-16" d="M793.11,1291.72c55.64-9.14,105.68-34.63,151.39-66.65-29.24-33.4-93.76-45.33-135.16-53.19-58.71-11.15-118.81-22.27-178.65-23.82l.38-2.24c55.68,3.82,116.4,7.34,170.2,22.92,53.21,15.42,104.34,20.04,149.08,56.34-38.83,40.87-104.52,54.86-157.24,66.63"/><path class="cls-16" d="M882.26,1225.21c-31.79-26.22-72.59-38.4-111.87-48.11,35.2,4.68,74.72,17.36,103.49,38.63,18.9,13.97,8.77,16.71-9.94,26.73-19.89,10.65-40.63,19.2-61.54,27.63,25.53-9.84,63.35-21.88,79.85-44.89"/><path class="cls-16" d="M844.9,1225.07c-34.68-21.57-72.66-34.72-112.76-41.51,42.52,5.14,81.3,20.78,117.74,42.78-31.04,18.8-65.65,31.27-100.62,40.33,33.17-10.49,65.72-23.74,95.65-41.59"/><path class="cls-16" d="M630.24,1264.47c51.19,.23,99.72-12.44,143.69-38.42-11.09-6.05-50,20.39-64.01,24.8-25.89,8.15-52.8,10.99-79.68,13.62"/><path class="cls-16" d="M773.93,1226.04c-27.77-12.35-57.71-24.02-88.29-26.11,14.49,1.32,28.57,4.81,42.44,9.13,12.92,4.02,33.02,19.19,45.85,16.98"/><path class="cls-16" d="M912.5,1128.22c35.53,4.09,70.85,12.22,104.13,25.38,29.93,11.83,59.87,29.98,92.35,33.88-67.75-12.68-127.98-46.91-196.48-59.26"/><path class="cls-16" d="M937.5,1099.67c28.57,6.74,63.2,9.43,89.68,22.06,24.25,11.57,51.31,24.93,78.2,28.37-23.82-4.24-52.36-9.57-72.9-22.92-25.46-16.54-65.68-19.67-94.97-27.52"/><path class="cls-16" d="M910.99,1064.73c37.44,7.15,74.94,16.05,110.97,28.51,34.17,11.82,64.86,32.17,102.18,33.68-73.31-11.99-139.05-54.35-213.16-62.19"/><path class="cls-16" d="M1112.55,1098.72c-16.23-4.57-77.62-16.94-70.7-37.12,8.76-25.54,66.49-41.99,88.58-49.22-30.34,6.48-69.1,19.65-88.72,45.33-11.75,15.38,2.03,18.48,17.86,25.61,16.89,7.61,35.35,11.63,52.98,15.39"/><path class="cls-16" d="M938.43,1053.25c39.93-4.41,82.08-12.77,115.55-36.17-31.8,23.31-77.74,29.38-115.55,36.17"/><path class="cls-16" d="M966.86,1008.53c58.26-1.22,105.77-37.96,163.75-43.45-57.36,7.04-106.79,37.06-163.75,43.45"/><path class="cls-16" d="M1121.75,1066.13c32.27-19.77,68.81-29.9,105.71-36.7-35.37,5.25-68.83,18.47-99.73,36.1,25.9,15.02,58.11,20.24,87.05,26.1-30-4.24-67.56-7.65-93.02-25.5"/><path class="cls-16" d="M1228.35,1062.8c18.4-9.75,40.42-15.65,61.3-14.08-19.63,.29-39.63,4.58-56.58,14.72,8.88,3.93,17.89,7.79,27.35,10.06-10.88-1.72-23.19-3.88-32.08-10.7"/><path class="cls-16" d="M870.77,971.2c102.99-3.22,203.44-27.38,306.37-29.96-103,5.41-203.75,21.3-306.37,29.96"/><path class="cls-16" d="M863.7,866.59c64.52,11.58,129.8,21.07,195.37,23.15-65.75,.48-131.36-8.89-195.37-23.15"/><path class="cls-16" d="M857.53,849.14c69.14,12.75,138.75,22.78,209.06,25.7-69.91-5.04-139.71-15.72-209.06-25.7"/><path class="cls-16" d="M768.07,802.74c91.6-.05,174.63,43.5,267.49,43.34-45.88-2.14-93.22-5.96-138.04-16.36-43.45-10.08-84.24-26.34-129.46-26.98"/><path class="cls-16" d="M883.93,785.11c37.91,15.97,77.57,26.95,118.14,33.44-33-9.45-71.56-16.63-101.96-32.76,25.76-24.87,73.92-25.66,107.17-28.23-34.7,4.24-96.15,3.46-123.36,27.55"/><path class="cls-16" d="M821.74,766.83c17.44,4.39,34.84-3.02,48.6-13.51-14.4,9.08-31.7,13.3-48.6,13.51"/><path class="cls-16" d="M1107.41,1402.35c16.78-17.89,51.43-23.31,74.45-26.99,35.58-5.69,71.04-9.02,106.96-11.66-59.24,1.41-141.86-1.3-189.38,39.12-1.68,.15,10.22-.9,7.97-.47"/><path class="cls-16" d="M1049.65,1402.13c14.55-45.56,92.3-53.72,130.95-60.01-50.37,3.02-110.27,13.9-135.94,61.73-.43,.17,5.73-2.01,4.99-1.72"/><path class="cls-16" d="M967.48,1401.82c31.35-56.71,135.85-64.23,192-72.23-69.37,7.23-150.61,18.89-200.71,71.45,2.83,.14,6.12,.93,8.71,.78"/><path class="cls-9" d="M947.61,1387.43c-14.71,8.33-31.73,11.51-48.36,13.64,15.53-.03,50.86,9.37,48.36-13.64"/><path class="cls-16" d="M846.12,1398.25c31.02-4.8,61.32-8.14,88.36-24.81,27.46-16.93,55.36-30.79,86.8-38.76-32.45,7.42-64.29,19.15-91.26,38.91-23.21,17-56.34,18.87-83.9,24.67"/><path class="cls-16" d="M1349.82,1036.52c30.59,9.7,58.73,24.39,91.41,25.24-31.86-3.65-60.44-17.65-91.41-25.24"/><path class="cls-16" d="M1364.56,1090.09c14.52-2.34,30.15-5.48,44.83-3.56-12.93-7.29-31.82-.7-44.83,3.56"/><path class="cls-16" d="M1393.48,1016.76c27.89,3.57,54.15,14.22,82.1,16.5-26.39-6.71-54.7-16.37-82.1-16.5"/><path class="cls-16" d="M1505.88,991.65c-40.81-10.06-82.58-19.04-124.67-21.01,39.35,5.78,90,7.77,125.64,26.62l-.97-5.61"/><path class="cls-16" d="M1505.69,973.35c-47.7-12.96-97.48-19.43-146.83-20.23,49.41,3.54,99.38,9.56,146.81,24.21l.02-3.98"/><path class="cls-16" d="M1505.82,937.25c-69.48-21.57-147.18-19.22-219.04-18.02,36.05-1.24,72.73-1.19,108.67,2.18,19.38,1.81,39.19,3.08,58.32,6.85,9.64,1.9,51.34,13.34,52.05,8.99"/><path class="cls-16" d="M1313.55,752.89c32.16,10.89,66.17,14.5,99.91,15.82-33.41-1.66-76.47-1.04-107.01-16.21,2.36,.13,4.73,.27,7.09,.4"/><path class="cls-16" d="M1112.49,752.12c48.26,11.52,95.6,19.44,144.95,23.46-48.58-3.64-96.5-23.79-144.95-23.46"/><path class="cls-16" d="M1128.52,828.25c32.79-7.96,65.1-24.04,98.95-26.27-32.09,7.05-65.65,27.79-98.95,26.27"/><path class="cls-16" d="M1488.25,1403.17c-31.85-20.86-74.13-24.87-111.07-27.93,18.37,1.28,36.92,3.98,54.88,8.05,18.2,4.12,39.02,18.46,56.2,19.88"/><path class="cls-16" d="M1504.83,1363.65c-26.77-22.09-78.48-17.8-110.98-18.22,28.35,.15,92.38-3.98,110.71,22.45l.26-4.23"/></g></g><path class="cls-6" d="M1740.2,906.52c-10.16-16.18-19.92-20.57-2.89-37.8,2.84-2.87,10.34-11.2,10.7-14.87s-.11-.79-.1-3.25c-1.72,1.35,.5-1.36-1.81,.99-16.13,16.44-28.03,31-50.98,38,13.28,22.78,21.17,20.94,45.09,16.93Z"/><g><path class="cls-18" d="M1735.46,860.94s15.29-15.36,34.86-16.13c19.57-.76,36.01,13.36,36.01,13.36,0,0-15.29,15.36-34.86,16.13-19.57,.76-36.01-13.36-36.01-13.36Z"/><path class="cls-1" d="M1735.81,860.6c-.21,.2-.35,.34-.35,.34,0,0,16.44,14.12,36.01,13.36,19.57-.76,34.86-16.13,34.86-16.13h-.02l-70.5,2.43Z"/><g><polygon class="cls-14" points="1743.27 861.78 1753.14 870.94 1745.7 861.36 1759.73 860.33 1768.46 870.77 1762.77 860.28 1776.89 859.36 1783.96 868.03 1778.75 859.2 1789.12 858.53 1795.71 864.56 1789.89 858.53 1792.35 850.52 1788.78 858.1 1778.85 858.18 1781.63 847.93 1776.45 858.67 1763 858.91 1766.13 847.04 1759.42 858.94 1745.97 858.59 1749.72 851.2 1742.32 860.55 1743.27 861.78"/><polygon class="cls-14" points="1743.72 862.34 1805.04 857.86 1743.88 858.61 1742.34 860.56 1743.72 862.34"/></g></g><g><path class="cls-18" d="M1734.85,862.43s.72-27.76,18.27-45.7c17.55-17.94,45.3-19.26,45.3-19.26,0,0-.72,27.76-18.27,45.7-17.55,17.94-45.3,19.26-45.3,19.26Z"/><path class="cls-1" d="M1734.88,861.8c-.02,.37-.03,.63-.03,.63,0,0,27.74-1.32,45.3-19.26,17.55-17.94,18.27-45.7,18.27-45.7h-.03l-63.51,64.33Z"/><g><polygon class="cls-14" points="1742.86 856.33 1760.11 856.17 1744.75 853.8 1756.91 840.49 1774.23 842.53 1759.7 837.76 1772.04 824.47 1786.26 826.33 1773.63 822.7 1782.69 812.95 1794.15 812.76 1783.41 812.27 1778.65 802.64 1782.01 812.84 1772.82 821.66 1766.39 809.67 1771.02 824.23 1758.7 836.29 1751.17 822.48 1755.4 839.47 1742.56 850.98 1739.55 840.79 1740.89 856.02 1742.86 856.33"/><polygon class="cls-14" points="1743.78 856.45 1796.93 798.31 1740.64 852.84 1740.91 856.01 1743.78 856.45"/></g></g><g><path class="cls-18" d="M1740.82,863.3s-.04-16.8-10.39-27.9c-10.36-11.1-27.12-12.29-27.12-12.29,0,0,.04,16.8,10.39,27.9,10.36,11.1,27.12,12.29,27.12,12.29Z"/><path class="cls-1" d="M1740.81,862.92c0,.22,0,.38,0,.38,0,0-16.76-1.19-27.12-12.29-10.36-11.1-10.39-27.9-10.39-27.9h.02l37.49,39.81Z"/><g><polygon class="cls-14" points="1736.06 859.5 1725.63 859.16 1734.95 857.94 1727.79 849.72 1717.28 850.71 1726.14 848.03 1718.87 839.82 1710.24 840.73 1717.93 838.72 1712.59 832.69 1705.67 832.42 1712.16 832.27 1715.18 826.52 1713.01 832.64 1718.43 838.11 1722.5 830.94 1719.49 839.68 1726.77 847.15 1731.51 838.91 1728.72 849.12 1736.32 856.26 1738.28 850.15 1737.26 859.34 1736.06 859.5"/><polygon class="cls-14" points="1735.5 859.56 1704.19 823.64 1737.45 857.42 1737.24 859.33 1735.5 859.56"/></g></g><path class="cls-22" d="M649.14,891.12c4.2,0,8.26,.59,12.11,1.67v-4.5c0-10.05-2.93-18.26-6.52-18.26h-145.52c-3.58,0-6.52,8.22-6.52,18.26v4.42c3.77-1.03,7.73-1.59,11.83-1.59,20.54,0,37.84,13.84,43.11,32.7h48.41c5.27-18.86,22.57-32.7,43.11-32.7Z"/><g><polygon class="cls-22" points="582.39 1141.62 610.9 1115.92 610.9 947.6 553.89 947.6 553.89 1115.92 582.39 1141.62"/><polygon class="cls-22" points="582.74 1141.72 582.39 1141.62 582.05 1141.72 582.74 1141.72"/></g><g><polygon class="cls-22" points="607.8 958.46 607.78 958.4 552.06 975.71 545.16 983.54 555.28 986.08 555.3 986.07 555.32 986.13 611.04 968.83 617.94 961 607.82 958.46 607.8 958.46"/><polygon class="cls-22" points="617.94 961 618 961.05 617.96 960.93 617.94 961"/><polygon class="cls-22" points="545.14 983.61 545.16 983.54 545.11 983.49 545.14 983.61"/></g><polygon class="cls-21" points="545.35 983.62 555.23 986.09 555.25 986.09 555.27 986.15 610.99 968.84 617.81 961.11 545.35 983.62"/><g><polygon class="cls-22" points="607.8 979.4 607.78 979.33 552.06 996.64 545.16 1004.47 555.28 1007.01 555.3 1007 555.32 1007.07 611.04 989.76 617.94 981.93 607.82 979.39 607.8 979.4"/><polygon class="cls-22" points="617.94 981.93 618 981.98 617.96 981.86 617.94 981.93"/><polygon class="cls-22" points="545.14 1004.54 545.16 1004.47 545.11 1004.42 545.14 1004.54"/></g><polygon class="cls-21" points="545.35 1004.55 555.23 1007.03 555.25 1007.02 555.27 1007.08 610.99 989.77 617.81 982.04 545.35 1004.55"/><g><polygon class="cls-22" points="607.8 1000.33 607.78 1000.26 552.06 1017.57 545.16 1025.4 555.28 1027.94 555.3 1027.93 555.32 1028 611.04 1010.69 617.94 1002.86 607.82 1000.32 607.8 1000.33"/><polygon class="cls-22" points="617.94 1002.86 618 1002.91 617.96 1002.79 617.94 1002.86"/><polygon class="cls-22" points="545.14 1025.47 545.16 1025.4 545.11 1025.35 545.14 1025.47"/></g><polygon class="cls-21" points="545.35 1025.48 555.23 1027.96 555.25 1027.95 555.27 1028.01 610.99 1010.7 617.81 1002.97 545.35 1025.48"/><g><polygon class="cls-22" points="607.8 1021.26 607.78 1021.19 552.06 1038.5 545.16 1046.33 555.28 1048.87 555.3 1048.86 555.32 1048.93 611.04 1031.62 617.94 1023.79 607.82 1021.25 607.8 1021.26"/><polygon class="cls-22" points="617.94 1023.79 618 1023.84 617.96 1023.72 617.94 1023.79"/><polygon class="cls-22" points="545.14 1046.4 545.16 1046.33 545.11 1046.28 545.14 1046.4"/></g><polygon class="cls-21" points="545.35 1046.41 555.23 1048.89 555.25 1048.88 555.27 1048.94 610.99 1031.63 617.81 1023.9 545.35 1046.41"/><g><polygon class="cls-22" points="608.65 1042.19 608.63 1042.12 552.9 1059.43 546 1067.26 556.12 1069.8 556.14 1069.8 556.16 1069.86 611.89 1052.55 618.79 1044.72 608.67 1042.18 608.65 1042.19"/><polygon class="cls-22" points="618.79 1044.72 618.84 1044.77 618.8 1044.65 618.79 1044.72"/><polygon class="cls-22" points="545.99 1067.33 546 1067.26 545.95 1067.21 545.99 1067.33"/></g><polygon class="cls-21" points="546.2 1067.34 556.07 1069.82 556.09 1069.81 556.11 1069.87 611.83 1052.56 618.65 1044.83 546.2 1067.34"/><g><polygon class="cls-22" points="607.8 1063.12 607.78 1063.06 552.06 1080.36 545.16 1088.19 555.28 1090.73 555.3 1090.73 555.32 1090.79 611.04 1073.48 617.94 1065.65 607.82 1063.11 607.8 1063.12"/><polygon class="cls-22" points="617.94 1065.65 618 1065.7 617.96 1065.58 617.94 1065.65"/><polygon class="cls-22" points="545.14 1088.26 545.16 1088.19 545.11 1088.14 545.14 1088.26"/></g><polygon class="cls-21" points="545.35 1088.27 555.23 1090.75 555.25 1090.74 555.27 1090.8 610.99 1073.49 617.81 1065.76 545.35 1088.27"/><g><polygon class="cls-22" points="607.8 1084.05 607.78 1083.99 552.06 1101.3 545.16 1109.12 555.28 1111.66 555.3 1111.66 555.32 1111.72 611.04 1094.41 617.94 1086.58 607.82 1084.04 607.8 1084.05"/><polygon class="cls-22" points="617.94 1086.58 618 1086.63 617.96 1086.51 617.94 1086.58"/><polygon class="cls-22" points="545.14 1109.2 545.16 1109.12 545.11 1109.07 545.14 1109.2"/></g><polygon class="cls-21" points="545.35 1109.2 555.23 1111.68 555.25 1111.67 555.27 1111.73 610.99 1094.43 617.81 1086.69 545.35 1109.2"/><path class="cls-21" d="M661.25,888.75c0-10.3-2.26-18.73-5.03-18.73h-7.08v21.1c4.2,0,8.26,.59,12.11,1.67v-4.04Z"/><circle class="cls-6" cx="1654.83" cy="1002.91" r="134.62"/><circle class="cls-12" cx="1654.83" cy="1002.91" r="123.15"/><g><path class="cls-3" d="M1675.81,1004.43c.1,.37-.13,.81-.13,1.14-.22,1.55-1.33,2.66-1.88,4.1-1,2.88-1.77,6.2-4.65,7.64-.78,.44-1.44,.89-2.11,1.36-.34,.26-.7,.51-1.06,.74s-.73,.46-1.11,.67-.76,.41-1.13,.64c-.58,.36-1.02,.69-1.57,.91-2.55,.55-4.76,1.55-7.31,1.77-3.43,.44-7.2,0-9.75-3.21-1.66-1.99-4.43-3.32-4.75-6.19-.12-.37-.34-.74-.55-1.12s-.42-.74-.67-1.06c-2.11-2.14-2.56-5.25-2.45-8.02,.11-.89,.78-1.77,.89-2.66,.22-3.32,.33-7.09,3.54-9.19,1.11-.66,1.44-2.1,2.55-2.77,2.44-1.33,4.76-2.1,7.09-3.77,2.44-1.77,5.32-.78,7.92,.27,.44,.09,.87,.17,1.3,.27s.86,.21,1.29,.3c1.12,.04,2.23,.15,3.34,.71,1.11,.66,1.88,1.99,2.88,2.33,6.76,1.77,7.75,8.86,8.32,14.39,.01,.25,.02,.5,0,.76Z"/><path class="cls-3" d="M1684,1004.61c.14,.52-.18,1.15-.18,1.62-.31,2.2-1.89,3.77-2.67,5.81-1.41,4.09-2.51,8.8-6.6,10.84-1.1,.63-2.04,1.26-3,1.93-.49,.37-.99,.72-1.5,1.05s-1.04,.65-1.57,.95-1.07,.59-1.6,.9c-.82,.51-1.45,.98-2.23,1.3-3.61,.79-6.76,2.2-10.37,2.51-4.87,.63-10.22,0-13.83-4.56-2.36-2.83-6.29-4.71-6.74-8.79-.17-.53-.49-1.05-.79-1.59s-.6-1.06-.94-1.51c-3-3.04-3.63-7.44-3.47-11.37,.16-1.26,1.1-2.51,1.26-3.77,.31-4.71,.47-10.06,5.03-13.04,1.57-.94,2.04-2.99,3.61-3.93,3.46-1.89,6.76-2.99,10.06-5.34,3.46-2.51,7.54-1.1,11.23,.39,.62,.12,1.24,.25,1.85,.39s1.22,.3,1.83,.42c1.59,.06,3.17,.22,4.74,1,1.57,.94,2.67,2.83,4.09,3.3,9.59,2.51,11,12.57,11.8,20.41,.02,.35,.03,.71,.01,1.07Z"/><path class="cls-3" d="M1690.95,1004.77c.17,.65-.22,1.44-.22,2.03-.39,2.75-2.36,4.72-3.34,7.27-1.77,5.11-3.14,11.01-8.25,13.56-1.38,.79-2.55,1.57-3.75,2.42-.61,.46-1.23,.9-1.87,1.31s-1.3,.81-1.97,1.18-1.34,.73-2,1.13c-1.02,.64-1.81,1.23-2.79,1.62-4.52,.98-8.45,2.75-12.97,3.14-6.09,.79-12.77,0-17.3-5.7-2.95-3.54-7.86-5.9-8.43-10.99-.22-.66-.61-1.32-.98-1.99s-.75-1.32-1.18-1.89c-3.75-3.8-4.54-9.31-4.34-14.22,.2-1.57,1.38-3.14,1.57-4.72,.39-5.9,.59-12.58,6.29-16.31,1.97-1.18,2.55-3.73,4.52-4.91,4.32-2.36,8.45-3.73,12.58-6.68,4.32-3.14,9.43-1.38,14.04,.48,.77,.15,1.55,.31,2.32,.48s1.53,.37,2.28,.53c1.99,.07,3.96,.27,5.92,1.25,1.97,1.18,3.34,3.54,5.11,4.13,11.99,3.14,13.76,15.72,14.75,25.52,.03,.44,.03,.89,.01,1.34Z"/><path class="cls-3" d="M1669.23,961.39c.85,0,1.68,.72,2.4,.91,3.23,1.34,5.02,4.34,7.83,6.33,5.68,3.75,12.44,7.27,13.97,14.26,.53,1.91,1.12,3.59,1.78,5.3,.37,.88,.71,1.78,1.02,2.68s.59,1.83,.83,2.76,.48,1.86,.76,2.77c.46,1.44,.93,2.58,1.1,3.89-.21,5.78,.72,11.1-.21,16.7-.94,7.63-3.99,15.48-12.35,19.16-5.24,2.46-9.65,7.67-16.04,6.76-.87,.06-1.8,.33-2.73,.57s-1.84,.49-2.67,.84c-5.81,3.35-12.77,2.57-18.7,.79-1.86-.73-3.41-2.65-5.26-3.39-7.07-2.33-15.16-4.67-17.94-12.74-.83-2.75-3.76-4.27-4.58-7.02-1.53-5.98-1.92-11.41-4.23-17.34-2.49-6.23,1.27-11.86,4.97-16.86,.43-.89,.86-1.78,1.31-2.65s.93-1.74,1.36-2.6c.71-2.39,1.57-4.71,3.38-6.78,2.05-2.01,5.36-2.94,6.63-4.89,7.58-13.53,23.47-11.72,35.74-9.85,.55,.11,1.09,.24,1.64,.4Z"/><path class="cls-3" d="M1612.03,974.28c.29-1,1.44-1.73,1.91-2.51,2.71-3.34,6.87-4.4,10.19-7.02,6.4-5.39,12.91-12.14,21.68-11.49,2.44,.04,4.62-.07,6.87-.24,1.17-.13,2.34-.22,3.52-.27s2.36-.05,3.54-.02,2.36,.09,3.53,.07c1.86-.04,3.36-.2,4.97,.05,6.75,2.27,13.34,3.02,19.62,6.07,8.66,3.77,16.85,10.1,18.28,21.24,1.07,7.03,5.68,14.05,2.38,21.27-.24,1.05-.24,2.23-.28,3.42s-.07,2.34,.06,3.44c1.92,8.02-1.42,15.95-5.59,22.32-1.51,1.93-4.32,3.09-5.83,5.02-5.21,7.52-10.79,16.25-21.28,16.7-3.53,.01-6.34,2.94-9.87,2.96-7.58-.28-14.12-1.72-21.91-1.06-8.21,.76-13.54-5.63-18.14-11.74-.9-.81-1.79-1.63-2.67-2.47-.88-.84-1.72-1.7-2.59-2.51-2.57-1.67-5.01-3.49-6.82-6.35-1.65-3.12-1.59-7.34-3.46-9.52-13.32-13.65-5.64-31.76,.84-45.57,.32-.61,.66-1.21,1.05-1.79Z"/><path class="cls-3" d="M1774.92,1005.96c.58,2.22-.77,4.91-.77,6.93-1.34,9.41-8.07,16.13-11.43,24.87-6.05,17.48-10.76,37.64-28.23,46.38-4.71,2.69-8.74,5.38-12.83,8.26-2.08,1.57-4.22,3.07-6.41,4.5-2.19,1.43-4.44,2.78-6.73,4.05-2.29,1.27-4.6,2.51-6.83,3.87-3.5,2.18-6.19,4.2-9.55,5.54-15.46,3.36-28.91,9.41-44.37,10.76-20.84,2.69-43.69,0-59.15-19.49-10.08-12.1-26.89-20.17-28.84-37.59-.74-2.26-2.09-4.5-3.36-6.79-1.27-2.29-2.55-4.51-4.04-6.46-12.83-13.01-15.52-31.84-14.85-48.64,.67-5.38,4.71-10.76,5.38-16.13,1.34-20.17,2.02-43.02,21.51-55.79,6.72-4.03,8.74-12.77,15.46-16.81,14.79-8.07,28.91-12.77,43.02-22.86,14.79-10.76,32.27-4.71,48.03,1.66,2.64,.53,5.29,1.06,7.92,1.65,2.63,.59,5.23,1.26,7.81,1.82,6.82,.26,13.54,.93,20.26,4.29,6.72,4.03,11.43,12.1,17.48,14.12,41,10.76,47.05,53.78,50.46,87.29,.09,1.51,.11,3.04,.05,4.59Z"/><path class="cls-3" d="M1661.41,1073.09c-1.28,.45-2.94-.21-4.13-.11-5.62-.33-9.91-3.93-15.23-5.48-10.61-2.69-22.74-4.45-28.75-14.27-1.82-2.63-3.6-4.86-5.5-7.11-1.03-1.14-2.02-2.32-2.97-3.54s-1.85-2.46-2.72-3.74c-.86-1.28-1.71-2.57-2.62-3.81-1.46-1.95-2.78-3.42-3.74-5.33-2.74-8.89-6.96-16.48-8.51-25.47-2.6-12.08-2.13-25.6,8.62-35.62,6.65-6.5,10.59-16.75,20.78-18.75,1.3-.55,2.55-1.45,3.85-2.3,1.29-.86,2.54-1.72,3.62-2.68,7.05-8.16,18.03-10.66,27.98-11.09,3.21,.13,6.58,2.23,9.78,2.36,11.97-.2,25.48-.93,33.97,9.87,2.71,3.74,7.96,4.49,10.67,8.23,5.48,8.27,8.95,16.31,15.58,24.09,7.07,8.14,4.35,18.68,1.36,28.23-.18,1.57-.37,3.15-.59,4.72s-.49,3.13-.69,4.67c.18,4.01,.11,7.98-1.54,12.09-2.05,4.14-6.58,7.29-7.48,10.93-4.35,24.56-29.44,30.21-49.05,33.86-.88,.13-1.79,.22-2.71,.25Z"/><path class="cls-3" d="M1716.64,1057.9c-.68,1.43-2.58,2.26-3.48,3.33-4.88,4.39-11.4,4.98-17.04,8.13-10.93,6.58-22.35,15.18-35.41,12.11-3.67-.65-6.98-1-10.41-1.28-1.79-.09-3.58-.23-5.36-.45s-3.56-.49-5.33-.82c-1.77-.34-3.53-.7-5.3-.96-2.81-.39-5.11-.51-7.48-1.28-9.62-5.03-19.36-7.75-28.09-13.85-12.14-7.76-22.96-19.25-22.44-36.38,.07-10.84-5.18-22.52,1.52-32.6,.61-1.52,.9-3.3,1.25-5.08s.66-3.51,.74-5.2c-.97-12.54,5.97-23.68,13.78-32.28,2.74-2.55,7.24-3.62,9.98-6.17,9.65-10.08,20.15-21.88,36.06-20.05,5.32,.83,10.26-2.91,15.58-2.08,11.35,2.25,20.86,5.98,32.75,6.86,12.54,.82,19.04,11.73,24.51,22.04,1.15,1.44,2.31,2.89,3.43,4.36,1.12,1.47,2.19,2.97,3.3,4.4,3.47,3.14,6.7,6.46,8.75,11.2,1.74,5.1,.64,11.44,2.92,15.17,16.78,23.76,.87,49.19-12.21,68.42-.62,.84-1.29,1.66-2.01,2.45Z"/><path class="cls-3" d="M1760.13,995.06c.69,1.84-.2,4.25-.02,5.97-.28,8.14-5.35,14.48-7.4,22.23-3.52,15.44-5.67,33.05-19.66,42.07-3.74,2.72-6.9,5.37-10.1,8.2-1.62,1.53-3.29,3-5.01,4.41-1.72,1.41-3.5,2.77-5.32,4.06-1.82,1.29-3.66,2.56-5.42,3.92-2.76,2.17-4.85,4.14-7.58,5.59-12.77,4.26-23.6,10.64-36.55,13.18-17.39,4.18-36.97,3.96-51.83-11.25-9.63-9.4-24.59-14.75-27.83-29.41-.83-1.85-2.18-3.64-3.47-5.48-1.29-1.84-2.57-3.61-4.01-5.14-12.04-9.92-16.03-25.72-17-40.09,.08-4.64,3-9.59,3.08-14.23-.7-17.3-2.22-36.84,13.11-49.48,5.32-4.05,6.23-11.67,11.55-15.72,11.78-8.21,23.29-13.5,34.31-23.37,11.53-10.5,26.87-6.93,40.79-2.94,2.28,.21,4.57,.42,6.85,.69s4.54,.6,6.77,.84c5.79-.4,11.54-.44,17.54,1.82,6.06,2.83,10.77,9.27,16.07,10.44,35.67,5.45,44.72,41.55,50.66,69.8,.21,1.28,.37,2.58,.46,3.91Z"/><path class="cls-3" d="M1671.39,1003.51c.07,.28-.1,.63-.1,.88-.17,1.2-1.03,2.06-1.46,3.17-.77,2.23-1.37,4.8-3.6,5.91-.6,.34-1.11,.69-1.64,1.05-.27,.2-.54,.39-.82,.57s-.57,.35-.86,.52-.59,.32-.87,.49c-.45,.28-.79,.54-1.22,.71-1.97,.43-3.69,1.2-5.66,1.37-2.66,.34-5.57,0-7.54-2.49-1.29-1.54-3.43-2.57-3.68-4.79-.09-.29-.27-.57-.43-.87s-.33-.58-.52-.82c-1.64-1.66-1.98-4.06-1.89-6.2,.09-.69,.6-1.37,.69-2.06,.17-2.57,.26-5.49,2.74-7.11,.86-.51,1.11-1.63,1.97-2.14,1.89-1.03,3.69-1.63,5.49-2.91,1.89-1.37,4.11-.6,6.13,.21,.34,.07,.67,.14,1.01,.21s.67,.16,1,.23c.87,.03,1.73,.12,2.58,.55,.86,.51,1.46,1.54,2.23,1.8,5.23,1.37,6,6.86,6.43,11.13,.01,.19,.01,.39,0,.59Z"/><path class="cls-3" d="M1664.8,996.6c.16,.12,.22,.38,.33,.52,.43,.73,.34,1.57,.6,2.36,.56,1.55,1.36,3.2,.64,4.78-.17,.45-.3,.86-.42,1.29-.06,.22-.12,.45-.19,.67s-.15,.44-.24,.66-.18,.43-.26,.65c-.12,.35-.19,.64-.35,.92-.88,1.1-1.47,2.27-2.46,3.22-1.29,1.35-3.02,2.44-5.18,1.96-1.37-.27-2.98,.11-4.09-.98-.18-.11-.4-.19-.61-.28s-.43-.17-.64-.22c-1.61-.18-2.85-1.33-3.75-2.53-.25-.41-.28-1.01-.53-1.42-1.03-1.47-2.27-3.08-1.63-5.06,.24-.65-.11-1.37,.13-2.03,.57-1.38,1.28-2.5,1.69-3.98,.42-1.57,1.97-2.13,3.41-2.57,.21-.11,.42-.22,.64-.33s.43-.21,.64-.31c.49-.36,.99-.69,1.64-.84,.69-.1,1.47,.2,2,0,3.43-1.55,6.26,1.08,8.37,3.21,.09,.1,.18,.2,.26,.31Z"/></g><g><path class="cls-2" d="M1674.39,1004.03c.1,.37-.13,.81-.13,1.14-.22,1.55-1.33,2.66-1.88,4.1-1,2.88-1.77,6.2-4.65,7.64-.78,.44-1.44,.89-2.11,1.36-.34,.26-.7,.51-1.06,.74s-.73,.46-1.11,.67-.76,.41-1.13,.64c-.58,.36-1.02,.69-1.57,.91-2.55,.55-4.76,1.55-7.31,1.77-3.43,.44-7.2,0-9.75-3.21-1.66-1.99-4.43-3.32-4.75-6.19-.12-.37-.34-.74-.55-1.12s-.42-.74-.67-1.06c-2.11-2.14-2.56-5.25-2.45-8.02,.11-.89,.78-1.77,.89-2.66,.22-3.32,.33-7.09,3.54-9.19,1.11-.66,1.44-2.1,2.55-2.77,2.44-1.33,4.76-2.1,7.09-3.77,2.44-1.77,5.32-.78,7.92,.27,.44,.09,.87,.17,1.3,.27s.86,.21,1.29,.3c1.12,.04,2.23,.15,3.34,.71,1.11,.66,1.88,1.99,2.88,2.33,6.76,1.77,7.75,8.86,8.32,14.39,.01,.25,.02,.5,0,.76Z"/><path class="cls-2" d="M1682.58,1004.21c.14,.52-.18,1.15-.18,1.62-.31,2.2-1.89,3.77-2.67,5.81-1.41,4.09-2.51,8.8-6.6,10.84-1.1,.63-2.04,1.26-3,1.93-.49,.37-.99,.72-1.5,1.05s-1.04,.65-1.57,.95-1.07,.59-1.6,.9c-.82,.51-1.45,.98-2.23,1.3-3.61,.79-6.76,2.2-10.37,2.51-4.87,.63-10.22,0-13.83-4.56-2.36-2.83-6.29-4.71-6.74-8.79-.17-.53-.49-1.05-.79-1.59s-.6-1.06-.94-1.51c-3-3.04-3.63-7.44-3.47-11.37,.16-1.26,1.1-2.51,1.26-3.77,.31-4.71,.47-10.06,5.03-13.04,1.57-.94,2.04-2.99,3.61-3.93,3.46-1.89,6.76-2.99,10.06-5.34,3.46-2.51,7.54-1.1,11.23,.39,.62,.12,1.24,.25,1.85,.39s1.22,.3,1.83,.42c1.59,.06,3.17,.22,4.74,1,1.57,.94,2.67,2.83,4.09,3.3,9.59,2.51,11,12.57,11.8,20.41,.02,.35,.03,.71,.01,1.07Z"/><path class="cls-2" d="M1689.53,1004.36c.17,.65-.22,1.44-.22,2.03-.39,2.75-2.36,4.72-3.34,7.27-1.77,5.11-3.14,11.01-8.25,13.56-1.38,.79-2.55,1.57-3.75,2.42-.61,.46-1.23,.9-1.87,1.31s-1.3,.81-1.97,1.18-1.34,.73-2,1.13c-1.02,.64-1.81,1.23-2.79,1.62-4.52,.98-8.45,2.75-12.97,3.14-6.09,.79-12.77,0-17.3-5.7-2.95-3.54-7.86-5.9-8.43-10.99-.22-.66-.61-1.32-.98-1.99s-.75-1.32-1.18-1.89c-3.75-3.8-4.54-9.31-4.34-14.22,.2-1.57,1.38-3.14,1.57-4.72,.39-5.9,.59-12.58,6.29-16.31,1.97-1.18,2.55-3.73,4.52-4.91,4.32-2.36,8.45-3.73,12.58-6.68,4.32-3.14,9.43-1.38,14.04,.48,.77,.15,1.55,.31,2.32,.48s1.53,.37,2.28,.53c1.99,.07,3.96,.27,5.92,1.25,1.97,1.18,3.34,3.54,5.11,4.13,11.99,3.14,13.76,15.72,14.75,25.52,.03,.44,.03,.89,.01,1.34Z"/><path class="cls-2" d="M1667.8,960.99c.85,0,1.68,.72,2.4,.91,3.23,1.34,5.02,4.34,7.83,6.33,5.68,3.75,12.44,7.27,13.97,14.26,.53,1.91,1.12,3.59,1.78,5.3,.37,.88,.71,1.78,1.02,2.68s.59,1.83,.83,2.76,.48,1.86,.76,2.77c.46,1.44,.93,2.58,1.1,3.89-.21,5.78,.72,11.1-.21,16.7-.94,7.63-3.99,15.48-12.35,19.16-5.24,2.46-9.65,7.67-16.04,6.76-.87,.06-1.8,.33-2.73,.57s-1.84,.49-2.67,.84c-5.81,3.35-12.77,2.57-18.7,.79-1.86-.73-3.41-2.65-5.26-3.39-7.07-2.33-15.16-4.67-17.94-12.74-.83-2.75-3.76-4.27-4.58-7.02-1.53-5.98-1.92-11.41-4.23-17.34-2.49-6.23,1.27-11.86,4.97-16.86,.43-.89,.86-1.78,1.31-2.65s.93-1.74,1.36-2.6c.71-2.39,1.57-4.71,3.38-6.78,2.05-2.01,5.36-2.94,6.63-4.89,7.58-13.53,23.47-11.72,35.74-9.85,.55,.11,1.09,.24,1.64,.4Z"/><path class="cls-2" d="M1610.61,973.88c.29-1,1.44-1.73,1.91-2.51,2.71-3.34,6.87-4.4,10.19-7.02,6.4-5.39,12.91-12.14,21.68-11.49,2.44,.04,4.62-.07,6.87-.24,1.17-.13,2.34-.22,3.52-.27s2.36-.05,3.54-.02,2.36,.09,3.53,.07c1.86-.04,3.36-.2,4.97,.05,6.75,2.27,13.34,3.02,19.62,6.07,8.66,3.77,16.85,10.1,18.28,21.24,1.07,7.03,5.68,14.05,2.38,21.27-.24,1.05-.24,2.23-.28,3.42s-.07,2.34,.06,3.44c1.92,8.02-1.42,15.95-5.59,22.32-1.51,1.93-4.32,3.09-5.83,5.02-5.21,7.52-10.79,16.25-21.28,16.7-3.53,.01-6.34,2.94-9.87,2.96-7.58-.28-14.12-1.72-21.91-1.06-8.21,.76-13.54-5.63-18.14-11.74-.9-.81-1.79-1.63-2.67-2.47-.88-.84-1.72-1.7-2.59-2.51-2.57-1.67-5.01-3.49-6.82-6.35-1.65-3.12-1.59-7.34-3.46-9.52-13.32-13.65-5.64-31.76,.84-45.57,.32-.61,.66-1.21,1.05-1.79Z"/><path class="cls-2" d="M1773.5,1005.55c.58,2.22-.77,4.91-.77,6.93-1.34,9.41-8.07,16.13-11.43,24.87-6.05,17.48-10.76,37.64-28.23,46.38-4.71,2.69-8.74,5.38-12.83,8.26-2.08,1.57-4.22,3.07-6.41,4.5-2.19,1.43-4.44,2.78-6.73,4.05s-4.6,2.51-6.83,3.87c-3.5,2.18-6.19,4.2-9.55,5.54-15.46,3.36-28.91,9.41-44.37,10.76-20.84,2.69-43.69,0-59.15-19.49-10.08-12.1-26.89-20.17-28.84-37.59-.74-2.26-2.09-4.5-3.36-6.79-1.27-2.29-2.55-4.51-4.04-6.46-12.83-13.01-15.52-31.84-14.85-48.64,.67-5.38,4.71-10.76,5.38-16.13,1.34-20.17,2.02-43.02,21.51-55.79,6.72-4.03,8.74-12.77,15.46-16.81,14.79-8.07,28.91-12.77,43.02-22.86,14.79-10.76,32.27-4.71,48.03,1.66,2.64,.53,5.29,1.06,7.92,1.65,2.63,.59,5.23,1.26,7.81,1.82,6.82,.26,13.54,.93,20.26,4.29,6.72,4.03,11.43,12.1,17.48,14.12,41,10.76,47.05,53.78,50.46,87.29,.09,1.51,.11,3.04,.05,4.59Z"/><path class="cls-2" d="M1659.99,1072.68c-1.28,.45-2.94-.21-4.13-.11-5.62-.33-9.91-3.93-15.23-5.48-10.61-2.69-22.74-4.45-28.75-14.27-1.82-2.63-3.6-4.86-5.5-7.11-1.03-1.14-2.02-2.32-2.97-3.54s-1.85-2.46-2.72-3.74c-.86-1.28-1.71-2.57-2.62-3.81-1.46-1.95-2.78-3.42-3.74-5.33-2.74-8.89-6.96-16.48-8.51-25.47-2.6-12.08-2.13-25.6,8.62-35.62,6.65-6.5,10.59-16.75,20.78-18.75,1.3-.55,2.55-1.45,3.85-2.3,1.29-.86,2.54-1.72,3.62-2.68,7.05-8.16,18.03-10.66,27.98-11.09,3.21,.13,6.58,2.23,9.78,2.36,11.97-.2,25.48-.93,33.97,9.87,2.71,3.74,7.96,4.49,10.67,8.23,5.48,8.27,8.95,16.31,15.58,24.09,7.07,8.14,4.35,18.68,1.36,28.23-.18,1.57-.37,3.15-.59,4.72s-.49,3.13-.69,4.67c.18,4.01,.11,7.98-1.54,12.09-2.05,4.14-6.58,7.29-7.48,10.93-4.35,24.56-29.44,30.21-49.05,33.86-.88,.13-1.79,.22-2.71,.25Z"/><path class="cls-2" d="M1715.22,1057.5c-.68,1.43-2.58,2.26-3.48,3.33-4.88,4.39-11.4,4.98-17.04,8.13-10.93,6.58-22.35,15.18-35.41,12.11-3.67-.65-6.98-1-10.41-1.28-1.79-.09-3.58-.23-5.36-.45s-3.56-.49-5.33-.82c-1.77-.34-3.53-.7-5.3-.96-2.81-.39-5.11-.51-7.48-1.28-9.62-5.03-19.36-7.75-28.09-13.85-12.14-7.76-22.96-19.25-22.44-36.38,.07-10.84-5.18-22.52,1.52-32.6,.61-1.52,.9-3.3,1.25-5.08s.66-3.51,.74-5.2c-.97-12.54,5.97-23.68,13.78-32.28,2.74-2.55,7.24-3.62,9.98-6.17,9.65-10.08,20.15-21.88,36.06-20.05,5.32,.83,10.26-2.91,15.58-2.08,11.35,2.25,20.86,5.98,32.75,6.86,12.54,.82,19.04,11.73,24.51,22.04,1.15,1.44,2.31,2.89,3.43,4.36,1.12,1.47,2.19,2.97,3.3,4.4,3.47,3.14,6.7,6.46,8.75,11.2,1.74,5.1,.64,11.44,2.92,15.17,16.78,23.76,.87,49.19-12.21,68.42-.62,.84-1.29,1.66-2.01,2.45Z"/><path class="cls-2" d="M1758.7,994.66c.69,1.84-.2,4.25-.02,5.97-.28,8.14-5.35,14.48-7.4,22.23-3.52,15.44-5.67,33.05-19.66,42.07-3.74,2.72-6.9,5.37-10.1,8.2-1.62,1.53-3.29,3-5.01,4.41s-3.5,2.77-5.32,4.06c-1.82,1.29-3.66,2.56-5.42,3.92-2.76,2.17-4.85,4.14-7.58,5.59-12.77,4.26-23.6,10.64-36.55,13.18-17.39,4.18-36.97,3.96-51.83-11.25-9.63-9.4-24.59-14.75-27.83-29.41-.83-1.85-2.18-3.64-3.47-5.48-1.29-1.84-2.57-3.61-4.01-5.14-12.04-9.92-16.03-25.72-17-40.09,.08-4.64,3-9.59,3.08-14.23-.7-17.3-2.22-36.84,13.11-49.48,5.32-4.05,6.23-11.67,11.55-15.72,11.78-8.21,23.29-13.5,34.31-23.37,11.53-10.5,26.87-6.93,40.79-2.94,2.28,.21,4.57,.42,6.85,.69,2.28,.26,4.54,.6,6.77,.84,5.79-.4,11.54-.44,17.54,1.82,6.06,2.83,10.77,9.27,16.07,10.44,35.67,5.45,44.72,41.55,50.66,69.8,.21,1.28,.37,2.58,.46,3.91Z"/><path class="cls-2" d="M1669.97,1003.1c.07,.28-.1,.63-.1,.88-.17,1.2-1.03,2.06-1.46,3.17-.77,2.23-1.37,4.8-3.6,5.91-.6,.34-1.11,.69-1.64,1.05-.27,.2-.54,.39-.82,.57s-.57,.35-.86,.52-.59,.32-.87,.49c-.45,.28-.79,.54-1.22,.71-1.97,.43-3.69,1.2-5.66,1.37-2.66,.34-5.57,0-7.54-2.49-1.29-1.54-3.43-2.57-3.68-4.79-.09-.29-.27-.57-.43-.87s-.33-.58-.52-.82c-1.64-1.66-1.98-4.06-1.89-6.2,.09-.69,.6-1.37,.69-2.06,.17-2.57,.26-5.49,2.74-7.11,.86-.51,1.11-1.63,1.97-2.14,1.89-1.03,3.69-1.63,5.49-2.91,1.89-1.37,4.11-.6,6.13,.21,.34,.07,.67,.14,1.01,.21s.67,.16,1,.23c.87,.03,1.73,.12,2.58,.55,.86,.51,1.46,1.54,2.23,1.8,5.23,1.37,6,6.86,6.43,11.13,.01,.19,.01,.39,0,.59Z"/><path class="cls-2" d="M1663.37,996.19c.16,.12,.22,.38,.33,.52,.43,.73,.34,1.57,.6,2.36,.56,1.55,1.36,3.2,.64,4.78-.17,.45-.3,.86-.42,1.29-.06,.22-.12,.45-.19,.67s-.15,.44-.24,.66-.18,.43-.26,.65c-.12,.35-.19,.64-.35,.92-.88,1.1-1.47,2.27-2.46,3.22-1.29,1.35-3.02,2.44-5.18,1.96-1.37-.27-2.98,.11-4.09-.98-.18-.11-.4-.19-.61-.28s-.43-.17-.64-.22c-1.61-.18-2.85-1.33-3.75-2.53-.25-.41-.28-1.01-.53-1.42-1.03-1.47-2.27-3.08-1.63-5.06,.24-.65-.11-1.37,.13-2.03,.57-1.38,1.28-2.5,1.69-3.98,.42-1.57,1.97-2.13,3.41-2.57,.21-.11,.42-.22,.64-.33s.43-.21,.64-.31c.49-.36,.99-.69,1.64-.84,.69-.1,1.47,.2,2,0,3.43-1.55,6.26,1.08,8.37,3.21,.09,.1,.18,.2,.26,.31Z"/></g></svg>